<svg xmlns="http://www.w3.org/2000/svg" xmlns:xlink="http://www.w3.org/1999/xlink" viewBox="0 0 94.71 81.72"><defs><style>.cls-1{isolation:isolate;}.cls-2{fill:none;stroke:#7b83b5;stroke-miterlimit:10;stroke-width:0.21px;}.cls-3{fill:url(#linear-gradient);}.cls-4{fill:#2259c9;}.cls-5{fill:#00baeb;}.cls-6{fill:url(#linear-gradient-2);}.cls-7,.cls-8{opacity:0.5;mix-blend-mode:multiply;}.cls-7{fill:url(#radial-gradient);}.cls-8{fill:url(#linear-gradient-3);}</style><linearGradient id="linear-gradient" x1="-3.29" y1="45.91" x2="73.15" y2="45.91" gradientUnits="userSpaceOnUse"><stop offset="0" stop-color="#00baeb"/><stop offset="0.05" stop-color="#07b2e4"/><stop offset="0.35" stop-color="#2988c3"/><stop offset="0.61" stop-color="#4269aa"/><stop offset="0.84" stop-color="#51579b"/><stop offset="1" stop-color="#565096"/></linearGradient><linearGradient id="linear-gradient-2" x1="110.45" y1="48.25" x2="19.53" y2="48.25" xlink:href="#linear-gradient"/><radialGradient id="radial-gradient" cx="335.45" cy="485.49" r="53.61" gradientTransform="translate(-412.46 379.14) rotate(-89.5)" gradientUnits="userSpaceOnUse"><stop offset="0.49" stop-color="#fff"/><stop offset="0.55" stop-color="#fafafa"/><stop offset="0.61" stop-color="#ececec"/><stop offset="0.68" stop-color="#d5d5d5"/><stop offset="0.75" stop-color="#b5b5b5"/><stop offset="0.82" stop-color="#8c8c8c"/><stop offset="0.89" stop-color="#595959"/><stop offset="0.97" stop-color="#1e1e1e"/><stop offset="1"/></radialGradient><linearGradient id="linear-gradient-3" x1="309.3" y1="484.04" x2="366.18" y2="484.04" gradientTransform="translate(-412.46 379.14) rotate(-89.5)" xlink:href="#radial-gradient"/></defs><title>Asset 4</title><g class="cls-1"><g id="Layer_2" data-name="Layer 2"><g id="Object"><path class="cls-2" d="M76,72.07a31.6,31.6,0,0,1-7.29,4.57A46.94,46.94,0,0,0,76,72.07Z"/><path class="cls-3" d="M55.67,52.93A31.46,31.46,0,0,0,62,52.35,23.19,23.19,0,0,1,24.93,40.29a31.71,31.71,0,0,1,2.13-6A31.68,31.68,0,0,0,55.67,52.93Z"/><path class="cls-4" d="M80.46.52A47.36,47.36,0,0,1,76,72.07a31.67,31.67,0,0,0-12.41-55L80.14.82Z"/><path class="cls-5" d="M14.79,0,25.88,11.29l5.85,5.95,5,5.13A31.68,31.68,0,0,0,68.72,76.64,47.35,47.35,0,0,1,14.79,0Z"/><path class="cls-6" d="M63.6,17.08A31.67,31.67,0,0,1,76,72.07a46.94,46.94,0,0,1-7.29,4.57A31.69,31.69,0,0,1,24.05,47.48a32.09,32.09,0,0,1,.88-7.19A23.19,23.19,0,1,0,63.21,17.46Z"/><path class="cls-7" d="M24.93,40.29a32.09,32.09,0,0,0-.88,7.19,31.69,31.69,0,0,0,43.64,29.6C60,72.53,50.27,65.61,45.32,57.47a21.57,21.57,0,0,1-3-7.6A31.8,31.8,0,0,1,27.06,34.26,31.71,31.71,0,0,0,24.93,40.29Z"/><path class="cls-8" d="M87.39,48A31.68,31.68,0,0,0,63.6,17.08l-.39.38A23.18,23.18,0,0,1,62,52.35l-.43.34c3.78,7,8.08,14.88,11.64,21.35,1-.62,1.89-1.28,2.8-2A31.63,31.63,0,0,0,87.39,48Z"/></g></g></g></svg>