<svg xmlns="http://www.w3.org/2000/svg" xmlns:xlink="http://www.w3.org/1999/xlink" viewBox="0 0 81.86 78.15"><defs><style>.cls-1{isolation:isolate;}.cls-2{fill:#2259c9;}.cls-3{fill:#00baeb;}.cls-12,.cls-13,.cls-14,.cls-15,.cls-16,.cls-17,.cls-18,.cls-4{opacity:0.3;}.cls-5{fill:#fff;}.cls-10,.cls-11,.cls-12,.cls-13,.cls-14,.cls-15,.cls-16,.cls-17,.cls-18,.cls-19,.cls-5,.cls-6,.cls-7,.cls-8,.cls-9{mix-blend-mode:multiply;}.cls-6{fill:url(#linear-gradient);}.cls-7{fill:url(#linear-gradient-2);}.cls-8{fill:url(#linear-gradient-3);}.cls-9{fill:url(#linear-gradient-4);}.cls-10{fill:url(#linear-gradient-5);}.cls-11{fill:url(#linear-gradient-6);}.cls-12{fill:url(#radial-gradient);}.cls-13{fill:url(#radial-gradient-2);}.cls-14{fill:url(#radial-gradient-3);}.cls-15{fill:url(#radial-gradient-4);}.cls-16{fill:url(#radial-gradient-5);}.cls-17{fill:url(#radial-gradient-6);}.cls-18{fill:url(#radial-gradient-7);}.cls-19{opacity:0.15;fill:url(#radial-gradient-8);}</style><linearGradient id="linear-gradient" x1="452.55" y1="42.19" x2="461.52" y2="31.58" gradientTransform="translate(507.78 47.43) rotate(180)" gradientUnits="userSpaceOnUse"><stop offset="0" stop-color="#fff"/><stop offset="0.11" stop-color="#fafafa"/><stop offset="0.23" stop-color="#ececec"/><stop offset="0.36" stop-color="#d5d5d5"/><stop offset="0.5" stop-color="#b5b5b5"/><stop offset="0.64" stop-color="#8c8c8c"/><stop offset="0.79" stop-color="#595959"/><stop offset="0.93" stop-color="#1e1e1e"/><stop offset="1"/></linearGradient><linearGradient id="linear-gradient-2" x1="475.7" y1="36.11" x2="432.74" y2="-1.48" gradientTransform="translate(507.78 47.43) rotate(180)" gradientUnits="userSpaceOnUse"><stop offset="0" stop-color="#fff"/><stop offset="1"/></linearGradient><linearGradient id="linear-gradient-3" x1="446.44" y1="27.98" x2="494.58" y2="-16.5" xlink:href="#linear-gradient"/><linearGradient id="linear-gradient-4" x1="494" y1="13.1" x2="507.29" y2="13.1" xlink:href="#linear-gradient-2"/><linearGradient id="linear-gradient-5" x1="426.41" y1="3.58" x2="466.85" y2="3.58" xlink:href="#linear-gradient"/><linearGradient id="linear-gradient-6" x1="499.32" y1="35.88" x2="409.99" y2="-42.22" xlink:href="#linear-gradient-2"/><radialGradient id="radial-gradient" cx="453.83" cy="-1.29" r="10.61" gradientTransform="translate(507.78 47.43) rotate(180)" gradientUnits="userSpaceOnUse"><stop offset="0.71" stop-color="#fff"/><stop offset="0.76" stop-color="#fcfcfc"/><stop offset="0.8" stop-color="#f3f3f3"/><stop offset="0.83" stop-color="#e3e3e3"/><stop offset="0.87" stop-color="#cdcdcd"/><stop offset="0.89" stop-color="#b0b0b0"/><stop offset="0.92" stop-color="#8c8c8c"/><stop offset="0.95" stop-color="#626262"/><stop offset="0.98" stop-color="#333"/><stop offset="1"/></radialGradient><radialGradient id="radial-gradient-2" cx="454.35" cy="41.64" r="12.47" gradientTransform="translate(507.78 47.43) rotate(180)" gradientUnits="userSpaceOnUse"><stop offset="0.57" stop-color="#fff"/><stop offset="0.61" stop-color="#fefefe"/><stop offset="0.65" stop-color="#f4f4f4"/><stop offset="0.7" stop-color="#dbdbdb"/><stop offset="0.77" stop-color="#b1b1b1"/><stop offset="0.86" stop-color="#777"/><stop offset="0.95" stop-color="#2d2d2d"/><stop offset="1"/></radialGradient><radialGradient id="radial-gradient-3" cx="485.5" cy="-32.2" r="23.12" gradientTransform="translate(507.78 47.43) rotate(180)" gradientUnits="userSpaceOnUse"><stop offset="0.58" stop-color="#fff"/><stop offset="0.62" stop-color="#fcfcfc"/><stop offset="0.66" stop-color="#f3f3f3"/><stop offset="0.69" stop-color="#e3e3e3"/><stop offset="0.71" stop-color="#cdcdcd"/><stop offset="0.74" stop-color="#b0b0b0"/><stop offset="0.76" stop-color="#8c8c8c"/><stop offset="0.79" stop-color="#626262"/><stop offset="0.81" stop-color="#333"/><stop offset="0.83"/></radialGradient><radialGradient id="radial-gradient-4" cx="486.3" cy="12.04" r="18.83" gradientTransform="translate(507.78 47.43) rotate(180)" gradientUnits="userSpaceOnUse"><stop offset="0.57" stop-color="#fff"/><stop offset="0.65" stop-color="#fcfcfc"/><stop offset="0.7" stop-color="#f3f3f3"/><stop offset="0.75" stop-color="#e3e3e3"/><stop offset="0.8" stop-color="#cdcdcd"/><stop offset="0.85" stop-color="#b0b0b0"/><stop offset="0.89" stop-color="#8c8c8c"/><stop offset="0.93" stop-color="#626262"/><stop offset="0.97" stop-color="#333"/><stop offset="1"/></radialGradient><radialGradient id="radial-gradient-5" cx="461.22" cy="-20.51" r="34.21" gradientTransform="translate(507.78 47.43) rotate(180)" gradientUnits="userSpaceOnUse"><stop offset="0.75" stop-color="#fff"/><stop offset="0.8" stop-color="#fcfcfc"/><stop offset="0.83" stop-color="#f3f3f3"/><stop offset="0.86" stop-color="#e3e3e3"/><stop offset="0.89" stop-color="#cdcdcd"/><stop offset="0.91" stop-color="#b0b0b0"/><stop offset="0.94" stop-color="#8c8c8c"/><stop offset="0.96" stop-color="#626262"/><stop offset="0.98" stop-color="#333"/><stop offset="1"/></radialGradient><radialGradient id="radial-gradient-6" cx="512.2" cy="20.04" r="17.97" xlink:href="#radial-gradient-4"/><radialGradient id="radial-gradient-7" cx="460.67" cy="19.49" r="14.06" xlink:href="#radial-gradient"/><radialGradient id="radial-gradient-8" cx="432.84" cy="-8.71" r="15.58" gradientTransform="translate(507.78 47.43) rotate(180)" gradientUnits="userSpaceOnUse"><stop offset="0.49" stop-color="#fff"/><stop offset="0.52" stop-color="#f8f8f8"/><stop offset="0.56" stop-color="#e4e4e4"/><stop offset="0.61" stop-color="#c3c3c3"/><stop offset="0.67" stop-color="#959595"/><stop offset="0.73" stop-color="#5a5a5a"/><stop offset="0.8" stop-color="#131313"/><stop offset="0.82"/></radialGradient></defs><title>Asset 1</title><g class="cls-1"><g id="Layer_2" data-name="Layer 2"><g id="Object"><path class="cls-2" d="M4.53,40.26A24.33,24.33,0,0,1,8.72,35.7l5.06-4.24L29.9,17.93a14.79,14.79,0,0,0,2.5,2.7l8.53,7.17L26.7,39.74l-8.93,7.49a9,9,0,0,0-2,2.43,9.15,9.15,0,0,0,1.51,11.11,9.32,9.32,0,0,0,12.29.48l11.4,9.56-2,1.66A23.82,23.82,0,0,1,5.69,69.85,24.05,24.05,0,0,1,4.53,40.26Z"/><path class="cls-2" d="M40.93,8.67,51.27,0A14.66,14.66,0,0,1,52,17.93Z"/><path class="cls-2" d="M40.93,51.69,55.17,39.74l6.06-5.08a14.39,14.39,0,0,1,6.85-3.2,14.63,14.63,0,0,1,13.78,5l-4.53,3.8-11.2,9.4L52.33,61.25l-.21-.17Z"/><path class="cls-3" d="M30.59,0,40.93,8.67l11,9.26L68.08,31.46a14.39,14.39,0,0,0-6.85,3.2l-6.06,5.08L40.93,27.8,32.4,20.63a14.79,14.79,0,0,1-2.5-2.7A14.66,14.66,0,0,1,30.59,0Z"/><path class="cls-3" d="M15.73,49.66a9,9,0,0,1,2-2.43l8.93-7.49L40.93,51.69l11.19,9.39.21.17a9.31,9.31,0,0,0,12.29-.48,9.16,9.16,0,0,0,1.51-11.11l11.2-9.4A23.73,23.73,0,0,1,42.91,72.47l-2-1.66-11.4-9.56Z"/><path class="cls-3" d="M0,36.46a14.63,14.63,0,0,1,13.78-5L8.72,35.7a24.33,24.33,0,0,0-4.19,4.56Z"/><g class="cls-4"><path class="cls-5" d="M5.69,69.85A23.82,23.82,0,0,0,39,72.47l2-1.66L35.24,66l-1,.83A16.47,16.47,0,1,1,13.07,41.62l2-1.69L21,35,35.24,23,32.4,20.63a14.79,14.79,0,0,1-2.5-2.7L13.78,31.46,8.72,35.7a23.32,23.32,0,0,0-1.84,1.73,22.33,22.33,0,0,0-2.35,2.83A24.05,24.05,0,0,0,5.69,69.85Z"/><path class="cls-6" d="M46.12,13,52,17.93A14.66,14.66,0,0,0,51.73.58L47.27,10.87A14.84,14.84,0,0,1,46.12,13Z"/><path class="cls-5" d="M47.27,10.87,51.73.58c-.15-.2-.3-.39-.46-.58L40.94,8.67,46.12,13A14.84,14.84,0,0,0,47.27,10.87Z"/><path class="cls-5" d="M30.13.58c.15-.2.31-.39.47-.58L40.94,8.67,46.12,13,52,17.93,68.09,31.46a14.43,14.43,0,0,0-6.86,3.2l-.36.31L46.63,23l-5.69-4.78-2.27-1.9A14.62,14.62,0,0,1,35.75,13a14.35,14.35,0,0,1-1.16-2.15Z"/><path class="cls-7" d="M30.13.58l4.46,10.29A14.35,14.35,0,0,0,35.75,13a14.62,14.62,0,0,0,2.92,3.31l2.27,1.9L46.63,23,60.87,35l-5.7,4.77L40.94,27.8,35.24,23,32.4,20.63a14.79,14.79,0,0,1-2.5-2.7A14.65,14.65,0,0,1,30.13.58Z"/><path class="cls-5" d="M15.73,49.66a9,9,0,0,1,2-2.43L21,44.52,35.24,56.47l5.7,4.78L46.63,66l1,.83a16.48,16.48,0,0,0,24.17-22l5.55-4.65A23.74,23.74,0,0,1,42.91,72.47l-2-1.66L35.24,66l-5.71-4.78Z"/><path class="cls-8" d="M10.07,44.91a16.32,16.32,0,0,1,3-3.29l2-1.69L21,35,35.24,23l5.7,4.79L26.7,39.74,21,44.52l-3.23,2.71a9,9,0,0,0-2,2.43,9.17,9.17,0,0,0,1.51,11.11,9.32,9.32,0,0,0,12.29.48L35.24,66l-1,.83a16.48,16.48,0,0,1-24.17-22Z"/><path class="cls-9" d="M8.72,35.7l5.06-4.24A14.62,14.62,0,0,0,.49,35.91l6.39,1.52A23.32,23.32,0,0,1,8.72,35.7Z"/><path class="cls-5" d="M4.53,40.26a22.33,22.33,0,0,1,2.35-2.83L.49,35.91c-.17.18-.33.36-.49.55Z"/><path class="cls-10" d="M40.94,51.69,55.17,39.74,60.87,35l.36-.31a14.43,14.43,0,0,1,6.86-3.2,14.6,14.6,0,0,1,13.28,4.45L75,37.43l-4.53,1.08a14.28,14.28,0,0,0-3.67,1.43,14,14,0,0,0-2.41,1.64l-3.51,2.94L46.63,56.47Z"/><path class="cls-5" d="M46.63,56.47,60.87,44.52l3.51-2.94a14,14,0,0,1,2.41-1.64,14.28,14.28,0,0,1,3.67-1.43L75,37.43l6.38-1.52c.17.18.33.36.49.55l-4.52,3.8-5.55,4.65-5.66,4.75L52.33,61.25l-.21-.17Z"/><path class="cls-11" d="M21,44.52l5.7-4.78L40.94,51.69l5.69,4.78,5.49,4.61.21.17a9.31,9.31,0,0,0,12.29-.48,9.16,9.16,0,0,0,1.51-11.11l5.66-4.75a16.48,16.48,0,0,1-24.17,22l-1-.83-5.69-4.78-5.7-4.78Z"/></g><path class="cls-12" d="M47.24,46.39l-6.52,5.47,11.19,9.39.2.17,6.3-5.29A15.22,15.22,0,0,1,47.24,46.39Z"/><path class="cls-13" d="M51.74,18.1a14.71,14.71,0,0,0,2.73-9,20.21,20.21,0,0,1-6-6.75l-7.7,6.47Z"/><path class="cls-14" d="M25,78.15a23.68,23.68,0,0,0,13.71-5.51l2-1.66L29.32,61.42a9.64,9.64,0,0,1-5.57,2.06C25.55,67.53,25.38,74,25,78.15Z"/><path class="cls-15" d="M32.26,35.07,40.72,28,32.19,20.8a14.85,14.85,0,0,1-2.51-2.7l-8.4,7A24.65,24.65,0,0,1,32.26,35.07Z"/><path class="cls-16" d="M17.56,47.4a8.91,8.91,0,0,0-2,2.43l7,5.87c1.47-2.79,4.72-6.55,11.87-9.16l-7.89-6.63Z"/><path class="cls-17" d="M4.31,40.43A24.67,24.67,0,0,1,8.5,35.87l5.06-4.24a14.58,14.58,0,0,0-7.87.78l-4.6,5.32Z"/><path class="cls-18" d="M47.61,33.75,55,39.91,61,34.83a14.35,14.35,0,0,1,6.85-3.2L57.79,23.17A25.32,25.32,0,0,1,47.61,33.75Z"/><path class="cls-19" d="M81.63,55.39a24.6,24.6,0,0,0-4.51-15l-11.21,9.4a9.09,9.09,0,0,1,1.19,5.36C71.92,53.13,78,54.31,81.63,55.39Z"/></g></g></g></svg>