<svg xmlns="http://www.w3.org/2000/svg" xmlns:xlink="http://www.w3.org/1999/xlink" viewBox="0 0 118.04 63.14"><defs><style>.cls-1{isolation:isolate;}.cls-2{fill:url(#linear-gradient);}.cls-3{fill:url(#linear-gradient-2);}.cls-4{fill:url(#linear-gradient-3);}.cls-5{fill:url(#linear-gradient-4);}.cls-6{fill:url(#linear-gradient-5);}.cls-7{fill:url(#linear-gradient-6);}.cls-8{fill:url(#linear-gradient-7);}.cls-9{fill:url(#linear-gradient-8);}.cls-10{fill:url(#linear-gradient-9);}.cls-11{fill:url(#linear-gradient-10);}.cls-12{fill:url(#linear-gradient-11);}.cls-13{fill:url(#linear-gradient-12);}.cls-14{fill:url(#linear-gradient-13);}.cls-15{fill:url(#linear-gradient-14);}.cls-16{fill:url(#linear-gradient-15);}.cls-17{fill:url(#linear-gradient-16);}.cls-18{fill:url(#linear-gradient-17);}.cls-19{opacity:0.2;}.cls-20,.cls-21{mix-blend-mode:multiply;}.cls-20{fill:url(#linear-gradient-18);}.cls-21{fill:url(#linear-gradient-19);}.cls-22{fill:url(#linear-gradient-20);}</style><linearGradient id="linear-gradient" x1="-2353.2" y1="3725.63" x2="-2209.14" y2="3725.63" gradientTransform="matrix(0.82, 0.57, -0.57, 0.82, 4064.38, -1710.84)" gradientUnits="userSpaceOnUse"><stop offset="0.25" stop-color="#8fadd0"/><stop offset="0.94" stop-color="#c38cb2"/></linearGradient><linearGradient id="linear-gradient-2" x1="-2352.75" y1="3698.59" x2="-2242.15" y2="3698.59" xlink:href="#linear-gradient"/><linearGradient id="linear-gradient-3" x1="-2353.2" y1="3723.99" x2="-2209.03" y2="3723.99" xlink:href="#linear-gradient"/><linearGradient id="linear-gradient-4" x1="-2353.19" y1="3720.69" x2="-2340.06" y2="3720.69" xlink:href="#linear-gradient"/><linearGradient id="linear-gradient-5" x1="-2353.2" y1="3728.92" x2="-2209.41" y2="3728.92" xlink:href="#linear-gradient"/><linearGradient id="linear-gradient-6" x1="-2353.2" y1="3722.35" x2="-2209.09" y2="3722.35" xlink:href="#linear-gradient"/><linearGradient id="linear-gradient-7" x1="53.06" y1="82.25" x2="53.06" y2="18.33" gradientUnits="userSpaceOnUse"><stop offset="0" stop-color="#00dac8"/><stop offset="1" stop-color="#00baeb"/></linearGradient><linearGradient id="linear-gradient-8" x1="-2353.2" y1="3727.27" x2="-2208.98" y2="3727.27" xlink:href="#linear-gradient"/><linearGradient id="linear-gradient-9" x1="3977.16" y1="-3947.62" x2="4121.27" y2="-3947.62" gradientTransform="matrix(-0.82, -0.57, 0.57, -0.82, 5615.68, -908.59)" xlink:href="#linear-gradient"/><linearGradient id="linear-gradient-10" x1="3976.96" y1="-3954.08" x2="4088.21" y2="-3954.08" gradientTransform="matrix(-0.82, -0.57, 0.57, -0.82, 5615.68, -908.59)" xlink:href="#linear-gradient"/><linearGradient id="linear-gradient-11" x1="3977.19" y1="-3950.93" x2="4121.26" y2="-3950.93" gradientTransform="matrix(-0.82, -0.57, 0.57, -0.82, 5615.68, -908.59)" xlink:href="#linear-gradient"/><linearGradient id="linear-gradient-12" x1="3977.12" y1="-3949.28" x2="4121.29" y2="-3949.28" gradientTransform="matrix(-0.82, -0.57, 0.57, -0.82, 5615.68, -908.59)" xlink:href="#linear-gradient"/><linearGradient id="linear-gradient-13" x1="3977.15" y1="-3952.58" x2="4121.28" y2="-3952.58" gradientTransform="matrix(-0.82, -0.57, 0.57, -0.82, 5615.68, -908.59)" xlink:href="#linear-gradient"/><linearGradient id="linear-gradient-14" x1="3977.16" y1="-3945.94" x2="4121.27" y2="-3945.94" gradientTransform="matrix(-0.82, -0.57, 0.57, -0.82, 5615.68, -908.59)" xlink:href="#linear-gradient"/><linearGradient id="linear-gradient-15" x1="71.39" y1="-14.81" x2="60.27" y2="46.88" xlink:href="#linear-gradient-7"/><linearGradient id="linear-gradient-16" x1="3977.15" y1="-3923.75" x2="4121.54" y2="-3923.75" gradientTransform="matrix(-0.82, -0.57, 0.57, -0.82, 5615.68, -908.59)" xlink:href="#linear-gradient"/><linearGradient id="linear-gradient-17" x1="118.47" y1="90.99" x2="49.69" y2="22.21" gradientUnits="userSpaceOnUse"><stop offset="0" stop-color="#00baeb"/><stop offset="0.05" stop-color="#07b2e4"/><stop offset="0.35" stop-color="#2988c3"/><stop offset="0.61" stop-color="#4269aa"/><stop offset="0.84" stop-color="#51579b"/><stop offset="1" stop-color="#565096"/></linearGradient><linearGradient id="linear-gradient-18" x1="1375.96" y1="4885.69" x2="1344.53" y2="4853.7" gradientTransform="translate(4564.09 -2157.99) rotate(79.73)" gradientUnits="userSpaceOnUse"><stop offset="0.49" stop-color="#fff"/><stop offset="0.55" stop-color="#fafafa"/><stop offset="0.61" stop-color="#ececec"/><stop offset="0.68" stop-color="#d5d5d5"/><stop offset="0.75" stop-color="#b5b5b5"/><stop offset="0.82" stop-color="#8c8c8c"/><stop offset="0.89" stop-color="#595959"/><stop offset="0.97" stop-color="#1e1e1e"/><stop offset="1"/></linearGradient><linearGradient id="linear-gradient-19" x1="1309.63" y1="4762.59" x2="1362.6" y2="4793.87" xlink:href="#linear-gradient-18"/><linearGradient id="linear-gradient-20" x1="32.58" y1="-30.62" x2="60.92" y2="163.33" xlink:href="#linear-gradient-17"/></defs><title>Asset 2</title><g class="cls-1"><g id="Layer_2" data-name="Layer 2"><g id="Object"><path class="cls-2" d="M8.06,10.67l.43-.49Z"/><path class="cls-3" d="M112.43,49.4h0l-.31.45C112.22,49.69,112.33,49.55,112.43,49.4Z"/><path class="cls-4" d="M9.23,9.42,9.61,9Z"/><path class="cls-5" d="M12,7Z"/><path class="cls-6" d="M6,13.3l.46-.63Z"/><path class="cls-7" d="M10.52,8.2,10.76,8Z"/><path class="cls-8" d="M68.37,57.38a31.67,31.67,0,0,0,37.73-1.22,31.55,31.55,0,0,1-37.49,1.23h0l-63-43.66c-.45.65-.89,1.32-1.3,2A31.53,31.53,0,0,0,29,63.14l-.14-.3c-6.14-13.4,9.47-26.32,21.58-17.92Z"/><path class="cls-9" d="M7,12l.47-.57Z"/><path class="cls-10" d="M9.61,9c.3-.28.6-.57.91-.84C10.21,8.47,9.91,8.75,9.61,9Z"/><path class="cls-11" d="M5.63,13.74h0c.1-.15.2-.3.31-.44C5.84,13.44,5.73,13.59,5.63,13.74Z"/><path class="cls-12" d="M7.43,11.39q.3-.36.63-.72Q7.73,11,7.43,11.39Z"/><path class="cls-13" d="M8.49,10.18l.74-.76Z"/><path class="cls-14" d="M6.41,12.67,7,12Z"/><path class="cls-15" d="M10.76,8c.39-.35.79-.68,1.2-1C11.55,7.3,11.15,7.63,10.76,8Z"/><path class="cls-16" d="M49.45,5.74h0l63,43.65c.45-.65.89-1.31,1.3-2A31.53,31.53,0,0,0,89.11,0l.14.3c6.14,13.4-9.47,26.32-21.58,17.92l-18-12.46A31.67,31.67,0,0,0,12,7,31.55,31.55,0,0,1,49.45,5.74Z"/><path class="cls-17" d="M112.11,49.84l-.46.63Z"/><path class="cls-18" d="M68.59,57.36a31.57,31.57,0,0,0,37.49-1.23h0c.41-.32.8-.65,1.19-1l.25-.23c.31-.27.61-.55.91-.84l.37-.38c.25-.25.5-.5.74-.76l.44-.49c.21-.24.43-.48.63-.72l.46-.57c.19-.23.38-.47.56-.71l.46-.63.31-.44L49.43,5.7h0A31.55,31.55,0,0,0,11.94,6.94h0c-.41.32-.81.66-1.2,1l-.24.22L9.59,9l-.38.37c-.25.25-.49.51-.74.77L8,10.63q-.33.36-.63.72l-.47.57-.55.71-.46.63-.32.45,63,43.65Z"/><g class="cls-19"><path class="cls-20" d="M51.2,45.35,5.61,13.74q-.67,1-1.29,2A31.53,31.53,0,0,0,28.93,63.14l-.14-.3c-6.14-13.4,9.46-26.32,21.58-17.92l.77.53Z"/><path class="cls-21" d="M106.45,7A31.51,31.51,0,0,0,89.09,0c0,.1.09.2.14.3,6,13-8.53,25.52-20.46,18.63v.22L112.4,49.39c.45-.65.89-1.31,1.3-2A31.63,31.63,0,0,0,106.45,7Z"/></g><path class="cls-22" d="M68.34,18.67l-.24-.18c-.31-.21-.62-.4-.93-.59L49.68,5.77a31.67,31.67,0,0,0-44.07,8h0L48.44,43.44A16.46,16.46,0,0,0,50,44.65a16.75,16.75,0,0,0,1.67,1,15.91,15.91,0,0,0,16.71-27Z"/></g></g></g></svg>