<svg xmlns="http://www.w3.org/2000/svg" xmlns:xlink="http://www.w3.org/1999/xlink" viewBox="0 0 103.51 69.38"><defs><style>.cls-1{isolation:isolate;}.cls-2{fill:#2259c9;}.cls-3{fill:#28aad6;}.cls-4,.cls-8{opacity:0.5;}.cls-10,.cls-11,.cls-12,.cls-4,.cls-6,.cls-7,.cls-9{mix-blend-mode:multiply;}.cls-5{fill:#fff;}.cls-6{fill:url(#linear-gradient);}.cls-7{fill:url(#linear-gradient-2);}.cls-9{fill:url(#linear-gradient-3);}.cls-10{fill:url(#linear-gradient-4);}.cls-11{fill:url(#linear-gradient-5);}.cls-12{opacity:0.3;fill:url(#linear-gradient-6);}</style><linearGradient id="linear-gradient" x1="4803.88" y1="3852.6" x2="4868.41" y2="3852.6" gradientTransform="translate(4900.72 3885.36) rotate(180)" gradientUnits="userSpaceOnUse"><stop offset="0" stop-color="#fff"/><stop offset="0.11" stop-color="#fafafa"/><stop offset="0.23" stop-color="#ececec"/><stop offset="0.36" stop-color="#d5d5d5"/><stop offset="0.5" stop-color="#b5b5b5"/><stop offset="0.64" stop-color="#8c8c8c"/><stop offset="0.79" stop-color="#595959"/><stop offset="0.93" stop-color="#1e1e1e"/><stop offset="1"/></linearGradient><linearGradient id="linear-gradient-2" x1="4903.03" y1="3852.6" x2="4823.7" y2="3852.6" xlink:href="#linear-gradient"/><linearGradient id="linear-gradient-3" x1="4799.85" y1="3881.51" x2="4827.34" y2="3881.51" gradientTransform="translate(4900.72 3885.36) rotate(180)" gradientUnits="userSpaceOnUse"><stop offset="0.49" stop-color="#fff"/><stop offset="0.55" stop-color="#fafafa"/><stop offset="0.61" stop-color="#ececec"/><stop offset="0.68" stop-color="#d5d5d5"/><stop offset="0.75" stop-color="#b5b5b5"/><stop offset="0.82" stop-color="#8c8c8c"/><stop offset="0.89" stop-color="#595959"/><stop offset="0.97" stop-color="#1e1e1e"/><stop offset="1"/></linearGradient><linearGradient id="linear-gradient-4" x1="4836.92" y1="3860.25" x2="4848.6" y2="3846.78" xlink:href="#linear-gradient-3"/><linearGradient id="linear-gradient-5" x1="4861.41" y1="3825.24" x2="4848.12" y2="3843.3" xlink:href="#linear-gradient-3"/><linearGradient id="linear-gradient-6" x1="41.59" y1="27.47" x2="32.33" y2="5.71" gradientTransform="matrix(1, 0, 0, 1, 0, 0)" xlink:href="#linear-gradient-3"/></defs><title>Asset 3</title><g class="cls-1"><g id="Layer_2" data-name="Layer 2"><g id="Object"><polygon class="cls-2" points="27.86 7.71 36.75 7.71 51.76 33.69 56.21 41.4 63.46 53.96 90.16 7.71 75.66 7.71 80.11 0 103.51 0 63.46 69.38 51.76 49.11 47.3 41.4 27.86 7.71"/><polygon class="cls-3" points="0 0 80.11 0 75.66 7.71 56.21 41.4 51.76 33.69 66.76 7.71 13.35 7.71 40.05 53.96 47.3 41.4 51.76 49.11 40.05 69.38 0 0"/><g class="cls-4"><polygon class="cls-5" points="27.86 7.71 32.3 7.71 49.53 37.55 51.76 41.4 53.98 45.26 63.46 61.67 96.84 3.85 77.89 3.85 80.11 0 103.51 0 63.46 69.38 51.76 49.11 49.53 45.26 47.3 41.4 27.86 7.71"/><polygon class="cls-6" points="32.3 7.71 36.75 7.71 51.76 33.69 53.98 37.55 56.21 41.4 63.46 53.96 90.16 7.71 75.66 7.71 77.89 3.85 96.84 3.85 63.46 61.67 53.98 45.26 51.76 41.4 49.53 37.55 32.3 7.71"/><polygon class="cls-5" points="0 0 80.11 0 77.89 3.85 75.66 7.71 56.21 41.4 53.98 37.55 71.21 7.71 73.44 3.85 6.68 3.85 40.05 61.67 49.53 45.26 51.76 49.11 40.05 69.38 0 0"/><polygon class="cls-7" points="6.68 3.85 73.44 3.85 71.21 7.71 53.98 37.55 51.76 33.69 66.76 7.71 13.35 7.71 40.05 53.96 47.3 41.4 49.53 45.26 40.05 61.67 6.68 3.85"/></g><g class="cls-8"><polygon class="cls-9" points="75.66 7.71 80.11 0 95.16 0 89.14 7.71 75.66 7.71"/><polygon class="cls-10" points="56.21 41.4 51.76 33.69 55.73 26.89 60.95 33.18 56.21 41.4"/><polygon class="cls-11" points="51.76 49.11 47.3 41.4 42.19 50.25 46.5 58.21 51.76 49.11"/></g><polygon class="cls-12" points="27.86 7.71 36.75 7.71 43.41 19.24 35.42 20.82 27.86 7.71"/></g></g></g></svg>