<?xml version="1.0" encoding="utf-8"?>
<!-- Generator: Adobe Illustrator 25.3.0, SVG Export Plug-In . SVG Version: 6.00 Build 0)  -->
<svg version="1.1" id="Layer_1" xmlns="http://www.w3.org/2000/svg" xmlns:xlink="http://www.w3.org/1999/xlink" x="0px" y="0px"
	 viewBox="0 0 503 466.9" style="enable-background:new 0 0 503 466.9;" xml:space="preserve">
<style type="text/css">
	.st0{fill:#30AE4A;}
	.st1{fill:#FFFFFF;}
</style>
<g>
	<g>
		<path class="st0" d="M308.7,0H194.3C87,0,0,85.3,0,190.5c0,86.1,46.8,158.8,126.7,182.4c-0.6,2.7-0.9,5.3-0.9,8.1v67.2
			c0,22.4,16.2,24,32.3,8.2l93.4-80.3h57.2C416,376.1,503,290.8,503,185.6C503,80.3,416,0,308.7,0z"/>
	</g>
	<g>
		
			<ellipse transform="matrix(0.7071 -0.7071 0.7071 0.7071 -86.4453 168.9831)" class="st1" cx="160.8" cy="188.8" rx="27.8" ry="27.8"/>
		
			<ellipse transform="matrix(0.7071 -0.7071 0.7071 0.7071 -59.8676 233.1474)" class="st1" cx="251.5" cy="188.8" rx="27.8" ry="27.8"/>
		<circle class="st1" cx="342.2" cy="188.8" r="27.8"/>
	</g>
</g>
</svg>
