<svg id="svg" version="1.1" xmlns="http://www.w3.org/2000/svg" xmlns:xlink="http://www.w3.org/1999/xlink" width="400" height="400" viewBox="0, 0, 400,400"><g id="svgg"><path id="path0" d="M97.800 88.162 C 91.050 89.687,87.152 95.367,87.823 102.703 C 87.938 103.966,88.212 108.330,88.430 112.400 C 88.648 116.470,89.001 121.285,89.213 123.100 C 90.008 129.887,90.378 132.663,90.783 134.900 C 91.012 136.165,91.370 138.145,91.579 139.300 C 91.935 141.272,92.177 142.420,93.226 147.100 C 93.460 148.145,93.749 149.676,93.868 150.503 C 93.987 151.329,94.245 152.105,94.442 152.226 C 94.639 152.348,94.800 152.966,94.800 153.600 C 94.800 154.234,94.980 154.864,95.200 155.000 C 95.420 155.136,95.600 155.629,95.600 156.095 C 95.600 156.562,95.781 157.496,96.002 158.172 C 96.224 158.847,97.308 162.190,98.411 165.600 C 100.536 172.165,103.441 180.011,105.039 183.500 C 105.567 184.655,106.472 186.635,107.049 187.900 C 111.543 197.754,116.329 206.401,122.716 216.200 C 125.011 219.720,127.048 222.660,127.244 222.733 C 127.440 222.807,127.600 223.122,127.600 223.433 C 127.600 223.745,127.741 224.000,127.914 224.000 C 128.086 224.000,128.525 224.495,128.889 225.100 C 129.253 225.705,129.914 226.650,130.358 227.200 C 130.803 227.750,132.350 229.708,133.796 231.552 C 144.619 245.344,162.331 262.462,174.400 270.795 C 175.170 271.327,175.890 271.870,176.000 272.003 C 178.299 274.777,203.047 289.059,213.600 293.703 C 214.590 294.138,216.092 294.833,216.938 295.247 C 217.784 295.661,218.641 296.000,218.842 296.000 C 219.044 296.000,219.972 296.340,220.904 296.756 C 224.813 298.499,235.726 302.298,240.700 303.647 C 241.938 303.983,242.891 304.252,246.300 305.230 C 247.125 305.467,248.565 305.827,249.500 306.030 C 252.626 306.710,254.586 307.153,256.400 307.589 C 257.390 307.826,259.280 308.203,260.600 308.425 C 261.920 308.647,263.990 309.009,265.200 309.229 C 271.908 310.451,280.171 311.298,292.548 312.030 C 305.192 312.779,309.705 310.482,311.955 302.154 C 312.684 299.456,312.565 254.271,311.821 251.417 C 309.876 243.947,306.024 241.762,294.200 241.417 C 284.826 241.143,278.992 240.430,269.400 238.385 C 260.958 236.585,250.925 233.324,244.000 230.129 C 242.790 229.571,240.990 228.754,240.000 228.313 C 239.010 227.873,237.887 227.352,237.505 227.156 C 235.887 226.326,230.121 226.741,228.311 227.818 C 227.370 228.377,226.330 228.930,226.000 229.045 C 225.410 229.252,223.316 231.831,222.464 233.400 C 221.474 235.224,214.400 250.129,214.400 250.391 C 214.400 252.184,212.782 252.069,209.601 250.049 C 207.826 248.922,206.280 248.000,206.165 248.000 C 205.878 248.000,201.121 244.764,200.485 244.136 C 200.202 243.857,199.437 243.313,198.785 242.928 C 198.133 242.543,197.600 242.086,197.600 241.914 C 197.600 241.741,197.375 241.597,197.100 241.593 C 196.825 241.589,196.060 241.149,195.400 240.616 C 194.740 240.084,191.682 237.612,188.604 235.124 C 182.199 229.945,170.795 218.657,166.161 212.907 C 164.429 210.758,162.899 208.910,162.761 208.800 C 162.507 208.596,158.899 203.770,155.544 199.144 C 154.524 197.737,153.160 195.689,152.514 194.593 C 151.867 193.497,150.574 191.389,149.640 189.910 C 147.551 186.603,147.420 186.804,153.558 183.914 C 166.626 177.761,168.263 176.864,170.425 174.674 C 172.856 172.211,174.248 165.175,172.834 162.495 C 172.632 162.113,172.163 161.080,171.791 160.200 C 171.418 159.320,170.692 157.700,170.176 156.600 C 168.212 152.411,165.198 144.044,163.620 138.400 C 163.343 137.410,162.955 136.187,162.758 135.681 C 162.561 135.176,162.400 134.267,162.400 133.661 C 162.400 133.056,162.238 132.389,162.041 132.180 C 161.844 131.971,161.583 131.080,161.461 130.200 C 161.340 129.320,161.042 127.610,160.800 126.400 C 159.565 120.240,158.812 113.107,158.582 105.400 C 158.245 94.128,155.789 89.919,148.540 88.187 C 145.506 87.463,100.994 87.441,97.800 88.162 " stroke="none" fill="#fbfbfc" fill-rule="evenodd"></path><path id="path1" d="M179.003 0.275 C 177.025 0.362,175.234 0.606,175.023 0.817 C 174.812 1.028,173.427 1.200,171.944 1.200 C 170.461 1.200,169.136 1.380,169.000 1.600 C 168.864 1.820,167.773 2.000,166.576 2.000 C 165.379 2.000,164.400 2.180,164.400 2.400 C 164.400 2.620,163.511 2.800,162.424 2.800 C 161.337 2.800,160.336 2.980,160.200 3.200 C 160.064 3.420,159.243 3.600,158.376 3.600 C 157.509 3.600,156.800 3.780,156.800 4.000 C 156.800 4.220,155.900 4.400,154.800 4.400 C 153.700 4.400,152.800 4.580,152.800 4.800 C 152.800 5.020,152.181 5.200,151.424 5.200 C 150.667 5.200,149.936 5.380,149.800 5.600 C 149.664 5.820,148.933 6.000,148.176 6.000 C 147.419 6.000,146.800 6.180,146.800 6.400 C 146.800 6.620,146.170 6.800,145.400 6.800 C 144.630 6.800,144.000 6.980,144.000 7.200 C 144.000 7.420,143.370 7.600,142.600 7.600 C 141.830 7.600,141.200 7.780,141.200 8.000 C 141.200 8.220,140.752 8.400,140.204 8.400 C 139.316 8.400,134.307 9.905,132.200 10.805 C 131.760 10.993,130.680 11.376,129.800 11.655 C 128.920 11.935,128.029 12.307,127.820 12.482 C 127.611 12.657,127.116 12.800,126.720 12.800 C 126.324 12.800,126.000 12.980,126.000 13.200 C 126.000 13.420,125.550 13.600,125.000 13.600 C 124.450 13.600,124.000 13.747,124.000 13.928 C 124.000 14.108,123.100 14.500,122.000 14.800 C 120.900 15.100,120.000 15.492,120.000 15.672 C 120.000 15.853,119.640 16.000,119.200 16.000 C 118.760 16.000,118.400 16.180,118.400 16.400 C 118.400 16.620,118.040 16.800,117.600 16.800 C 117.160 16.800,116.800 16.980,116.800 17.200 C 116.800 17.420,116.350 17.600,115.800 17.600 C 115.250 17.600,114.800 17.780,114.800 18.000 C 114.800 18.220,114.566 18.400,114.280 18.400 C 113.544 18.400,111.607 19.341,111.603 19.700 C 111.601 19.865,111.240 20.000,110.800 20.000 C 110.360 20.000,110.000 20.180,110.000 20.400 C 110.000 20.620,109.640 20.800,109.200 20.800 C 108.760 20.800,108.399 20.935,108.397 21.100 C 108.393 21.459,106.456 22.400,105.720 22.400 C 105.434 22.400,105.200 22.580,105.200 22.800 C 105.200 23.020,104.964 23.200,104.675 23.200 C 104.387 23.200,103.764 23.560,103.292 24.000 C 102.820 24.440,102.156 24.800,101.817 24.800 C 101.478 24.800,101.200 24.980,101.200 25.200 C 101.200 25.420,101.065 25.564,100.900 25.521 C 100.354 25.377,98.800 26.047,98.800 26.427 C 98.800 26.632,98.440 26.800,98.000 26.800 C 97.560 26.800,97.200 26.980,97.200 27.200 C 97.200 27.420,96.964 27.600,96.675 27.600 C 96.387 27.600,95.802 27.915,95.375 28.300 C 94.949 28.685,94.060 29.269,93.400 29.597 C 92.740 29.926,91.909 30.511,91.553 30.897 C 91.197 31.284,90.652 31.600,90.341 31.600 C 90.031 31.600,89.517 31.960,89.200 32.400 C 88.883 32.840,88.369 33.200,88.059 33.200 C 87.748 33.200,87.203 33.516,86.847 33.903 C 86.491 34.289,85.705 34.860,85.100 35.170 C 84.495 35.481,84.000 35.885,84.000 36.068 C 84.000 36.250,83.730 36.400,83.400 36.400 C 83.070 36.400,82.800 36.580,82.800 36.800 C 82.800 37.020,82.570 37.200,82.288 37.200 C 82.007 37.200,81.517 37.560,81.200 38.000 C 80.883 38.440,80.375 38.800,80.072 38.800 C 79.769 38.800,79.017 39.340,78.400 40.000 C 77.783 40.660,77.164 41.200,77.023 41.200 C 76.752 41.200,76.352 41.514,74.349 43.300 C 73.671 43.905,72.988 44.400,72.831 44.400 C 72.675 44.400,71.416 45.480,70.033 46.800 C 68.650 48.120,67.367 49.200,67.182 49.200 C 66.998 49.200,64.991 51.086,62.723 53.392 C 57.734 58.463,58.583 57.615,53.446 62.669 C 51.111 64.967,49.200 66.998,49.200 67.182 C 49.200 67.367,48.120 68.650,46.800 70.033 C 45.480 71.416,44.400 72.675,44.400 72.831 C 44.400 72.988,43.859 73.719,43.199 74.458 C 41.469 76.390,41.200 76.736,41.200 77.023 C 41.200 77.164,40.660 77.783,40.000 78.400 C 39.340 79.017,38.800 79.769,38.800 80.072 C 38.800 80.375,38.440 80.883,38.000 81.200 C 37.560 81.517,37.200 82.007,37.200 82.288 C 37.200 82.570,37.020 82.800,36.800 82.800 C 36.580 82.800,36.400 83.070,36.400 83.400 C 36.400 83.730,36.250 84.000,36.068 84.000 C 35.885 84.000,35.481 84.495,35.170 85.100 C 34.860 85.705,34.289 86.491,33.903 86.847 C 33.516 87.203,33.200 87.748,33.200 88.059 C 33.200 88.369,32.840 88.883,32.400 89.200 C 31.960 89.517,31.600 90.031,31.600 90.341 C 31.600 90.652,31.284 91.197,30.897 91.553 C 30.511 91.909,29.926 92.740,29.597 93.400 C 29.269 94.060,28.685 94.949,28.300 95.375 C 27.915 95.802,27.600 96.387,27.600 96.675 C 27.600 96.964,27.420 97.200,27.200 97.200 C 26.980 97.200,26.800 97.560,26.800 98.000 C 26.800 98.440,26.632 98.800,26.427 98.800 C 26.047 98.800,25.377 100.354,25.521 100.900 C 25.564 101.065,25.420 101.200,25.200 101.200 C 24.980 101.200,24.800 101.478,24.800 101.817 C 24.800 102.156,24.440 102.820,24.000 103.292 C 23.560 103.764,23.200 104.387,23.200 104.675 C 23.200 104.964,23.020 105.200,22.800 105.200 C 22.580 105.200,22.400 105.434,22.400 105.720 C 22.400 106.456,21.459 108.393,21.100 108.397 C 20.935 108.399,20.800 108.760,20.800 109.200 C 20.800 109.640,20.620 110.000,20.400 110.000 C 20.180 110.000,20.000 110.360,20.000 110.800 C 20.000 111.240,19.865 111.601,19.700 111.603 C 19.341 111.607,18.400 113.544,18.400 114.280 C 18.400 114.566,18.220 114.800,18.000 114.800 C 17.780 114.800,17.600 115.250,17.600 115.800 C 17.600 116.350,17.420 116.800,17.200 116.800 C 16.980 116.800,16.800 117.160,16.800 117.600 C 16.800 118.040,16.620 118.400,16.400 118.400 C 16.180 118.400,16.000 118.760,16.000 119.200 C 16.000 119.640,15.853 120.000,15.672 120.000 C 15.492 120.000,15.100 120.900,14.800 122.000 C 14.500 123.100,14.108 124.000,13.928 124.000 C 13.747 124.000,13.600 124.450,13.600 125.000 C 13.600 125.550,13.420 126.000,13.200 126.000 C 12.980 126.000,12.800 126.324,12.800 126.720 C 12.800 127.116,12.657 127.611,12.482 127.820 C 12.307 128.029,11.935 128.920,11.655 129.800 C 11.376 130.680,10.993 131.760,10.805 132.200 C 9.905 134.307,8.400 139.316,8.400 140.204 C 8.400 140.752,8.220 141.200,8.000 141.200 C 7.780 141.200,7.600 141.830,7.600 142.600 C 7.600 143.370,7.420 144.000,7.200 144.000 C 6.980 144.000,6.800 144.630,6.800 145.400 C 6.800 146.170,6.620 146.800,6.400 146.800 C 6.180 146.800,6.000 147.419,6.000 148.176 C 6.000 148.933,5.820 149.664,5.600 149.800 C 5.380 149.936,5.200 150.667,5.200 151.424 C 5.200 152.181,5.020 152.800,4.800 152.800 C 4.580 152.800,4.400 153.700,4.400 154.800 C 4.400 155.900,4.220 156.800,4.000 156.800 C 3.780 156.800,3.600 157.509,3.600 158.376 C 3.600 159.243,3.420 160.064,3.200 160.200 C 2.980 160.336,2.800 161.337,2.800 162.424 C 2.800 163.511,2.620 164.400,2.400 164.400 C 2.180 164.400,2.000 165.379,2.000 166.576 C 2.000 167.773,1.820 168.864,1.600 169.000 C 1.380 169.136,1.200 170.461,1.200 171.944 C 1.200 173.567,1.001 174.839,0.700 175.140 C -0.029 175.869,-0.029 224.131,0.700 224.860 C 1.001 225.161,1.200 226.433,1.200 228.056 C 1.200 229.539,1.380 230.864,1.600 231.000 C 1.820 231.136,2.000 232.227,2.000 233.424 C 2.000 234.621,2.180 235.600,2.400 235.600 C 2.620 235.600,2.800 236.590,2.800 237.800 C 2.800 239.010,2.980 240.000,3.200 240.000 C 3.420 240.000,3.600 240.720,3.600 241.600 C 3.600 242.480,3.780 243.200,4.000 243.200 C 4.220 243.200,4.400 244.100,4.400 245.200 C 4.400 246.300,4.580 247.200,4.800 247.200 C 5.020 247.200,5.200 247.920,5.200 248.800 C 5.200 249.680,5.380 250.400,5.600 250.400 C 5.820 250.400,6.000 251.030,6.000 251.800 C 6.000 252.570,6.180 253.200,6.400 253.200 C 6.620 253.200,6.800 253.830,6.800 254.600 C 6.800 255.370,6.980 256.000,7.200 256.000 C 7.420 256.000,7.600 256.630,7.600 257.400 C 7.600 258.170,7.780 258.800,8.000 258.800 C 8.220 258.800,8.400 259.226,8.400 259.747 C 8.400 261.194,11.792 271.234,13.247 274.095 C 13.441 274.477,13.600 275.062,13.600 275.395 C 13.600 275.728,13.747 276.000,13.928 276.000 C 14.108 276.000,14.500 276.900,14.800 278.000 C 15.100 279.100,15.492 280.000,15.672 280.000 C 15.853 280.000,16.000 280.360,16.000 280.800 C 16.000 281.240,16.180 281.600,16.400 281.600 C 16.620 281.600,16.800 281.960,16.800 282.400 C 16.800 282.840,16.980 283.200,17.200 283.200 C 17.420 283.200,17.600 283.650,17.600 284.200 C 17.600 284.750,17.780 285.200,18.000 285.200 C 18.220 285.200,18.400 285.453,18.400 285.762 C 18.400 286.428,20.068 289.741,20.500 289.933 C 20.665 290.007,20.800 290.412,20.800 290.833 C 20.800 291.255,20.980 291.600,21.200 291.600 C 21.420 291.600,21.600 291.960,21.600 292.400 C 21.600 292.840,21.780 293.200,22.000 293.200 C 22.220 293.200,22.400 293.560,22.400 294.000 C 22.400 294.440,22.580 294.800,22.800 294.800 C 23.020 294.800,23.200 295.036,23.200 295.325 C 23.200 295.613,23.560 296.236,24.000 296.708 C 24.440 297.180,24.800 297.844,24.800 298.183 C 24.800 298.522,24.980 298.800,25.200 298.800 C 25.420 298.800,25.564 298.935,25.521 299.100 C 25.377 299.646,26.047 301.200,26.427 301.200 C 26.632 301.200,26.800 301.560,26.800 302.000 C 26.800 302.440,26.980 302.800,27.200 302.800 C 27.420 302.800,27.600 302.993,27.600 303.228 C 27.600 303.463,28.140 304.441,28.800 305.400 C 29.460 306.359,30.000 307.297,30.000 307.484 C 30.000 307.671,30.360 308.083,30.800 308.400 C 31.240 308.717,31.600 309.257,31.600 309.600 C 31.600 309.943,31.960 310.483,32.400 310.800 C 32.840 311.117,33.200 311.631,33.200 311.941 C 33.200 312.252,33.516 312.797,33.903 313.153 C 34.289 313.509,34.860 314.295,35.170 314.900 C 35.481 315.505,35.885 316.000,36.068 316.000 C 36.250 316.000,36.400 316.270,36.400 316.600 C 36.400 316.930,36.580 317.200,36.800 317.200 C 37.020 317.200,37.200 317.430,37.200 317.712 C 37.200 317.993,37.560 318.483,38.000 318.800 C 38.440 319.117,38.800 319.707,38.800 320.112 C 38.800 320.516,38.980 320.736,39.200 320.600 C 39.420 320.464,39.600 320.594,39.600 320.888 C 39.600 321.183,39.960 321.683,40.400 322.000 C 40.840 322.317,41.200 322.724,41.200 322.905 C 41.200 323.265,41.416 323.550,43.199 325.542 C 43.859 326.281,44.400 327.012,44.400 327.169 C 44.400 327.325,45.480 328.584,46.800 329.967 C 48.120 331.350,49.200 332.627,49.200 332.804 C 49.200 333.059,53.085 337.045,58.076 341.911 C 58.364 342.192,60.551 344.397,62.936 346.811 C 65.321 349.225,67.440 351.200,67.645 351.200 C 67.850 351.200,69.007 352.190,70.217 353.400 C 71.427 354.610,72.571 355.600,72.758 355.600 C 72.946 355.600,73.887 356.320,74.849 357.200 C 75.812 358.080,76.753 358.800,76.939 358.800 C 77.126 358.800,77.783 359.340,78.400 360.000 C 79.017 360.660,79.769 361.200,80.072 361.200 C 80.375 361.200,80.883 361.560,81.200 362.000 C 81.517 362.440,82.007 362.800,82.288 362.800 C 82.570 362.800,82.800 362.980,82.800 363.200 C 82.800 363.420,83.070 363.600,83.400 363.600 C 83.730 363.600,84.000 363.750,84.000 363.932 C 84.000 364.115,84.495 364.519,85.100 364.830 C 85.705 365.140,86.491 365.711,86.847 366.097 C 87.203 366.484,87.748 366.800,88.059 366.800 C 88.369 366.800,88.883 367.160,89.200 367.600 C 89.517 368.040,90.057 368.400,90.400 368.400 C 90.743 368.400,91.283 368.760,91.600 369.200 C 91.917 369.640,92.329 370.000,92.516 370.000 C 92.703 370.000,93.641 370.540,94.600 371.200 C 95.559 371.860,96.537 372.400,96.772 372.400 C 97.007 372.400,97.200 372.580,97.200 372.800 C 97.200 373.020,97.560 373.200,98.000 373.200 C 98.440 373.200,98.800 373.347,98.800 373.526 C 98.800 373.874,101.358 375.200,102.030 375.200 C 102.252 375.200,102.820 375.560,103.292 376.000 C 103.764 376.440,104.387 376.800,104.675 376.800 C 104.964 376.800,105.200 376.980,105.200 377.200 C 105.200 377.420,105.560 377.600,106.000 377.600 C 106.440 377.600,106.800 377.780,106.800 378.000 C 106.800 378.220,107.160 378.400,107.600 378.400 C 108.040 378.400,108.400 378.580,108.400 378.800 C 108.400 379.020,108.760 379.200,109.200 379.200 C 109.640 379.200,110.000 379.380,110.000 379.600 C 110.000 379.820,110.360 380.000,110.800 380.000 C 111.240 380.000,111.601 380.135,111.603 380.300 C 111.607 380.659,113.544 381.600,114.280 381.600 C 114.566 381.600,114.800 381.780,114.800 382.000 C 114.800 382.220,115.250 382.400,115.800 382.400 C 116.350 382.400,116.800 382.580,116.800 382.800 C 116.800 383.020,117.160 383.200,117.600 383.200 C 118.040 383.200,118.400 383.380,118.400 383.600 C 118.400 383.820,118.760 384.000,119.200 384.000 C 119.640 384.000,120.000 384.180,120.000 384.400 C 120.000 384.620,120.349 384.800,120.776 384.800 C 121.203 384.800,121.664 384.980,121.800 385.200 C 121.936 385.420,122.487 385.600,123.024 385.600 C 123.561 385.600,124.000 385.780,124.000 386.000 C 124.000 386.220,124.272 386.400,124.605 386.400 C 124.938 386.400,125.523 386.559,125.905 386.753 C 126.542 387.077,127.712 387.582,129.800 388.433 C 132.214 389.418,139.404 391.600,140.233 391.600 C 140.765 391.600,141.200 391.780,141.200 392.000 C 141.200 392.220,141.830 392.400,142.600 392.400 C 143.370 392.400,144.000 392.580,144.000 392.800 C 144.000 393.020,144.630 393.200,145.400 393.200 C 146.170 393.200,146.800 393.380,146.800 393.600 C 146.800 393.820,147.430 394.000,148.200 394.000 C 148.970 394.000,149.600 394.180,149.600 394.400 C 149.600 394.620,150.320 394.800,151.200 394.800 C 152.080 394.800,152.800 394.980,152.800 395.200 C 152.800 395.420,153.700 395.600,154.800 395.600 C 155.900 395.600,156.800 395.780,156.800 396.000 C 156.800 396.220,157.520 396.400,158.400 396.400 C 159.280 396.400,160.000 396.580,160.000 396.800 C 160.000 397.020,160.990 397.200,162.200 397.200 C 163.410 397.200,164.400 397.380,164.400 397.600 C 164.400 397.820,165.379 398.000,166.576 398.000 C 167.773 398.000,168.864 398.180,169.000 398.400 C 169.136 398.620,170.461 398.800,171.944 398.800 C 173.567 398.800,174.839 398.999,175.140 399.300 C 175.529 399.689,181.045 399.800,200.000 399.800 C 218.955 399.800,224.471 399.689,224.860 399.300 C 225.161 398.999,226.433 398.800,228.056 398.800 C 229.539 398.800,230.864 398.620,231.000 398.400 C 231.136 398.180,232.126 398.000,233.200 398.000 C 234.274 398.000,235.264 397.820,235.400 397.600 C 235.536 397.380,236.627 397.200,237.824 397.200 C 239.021 397.200,240.000 397.020,240.000 396.800 C 240.000 396.580,240.720 396.400,241.600 396.400 C 242.480 396.400,243.200 396.220,243.200 396.000 C 243.200 395.780,244.100 395.600,245.200 395.600 C 246.300 395.600,247.200 395.420,247.200 395.200 C 247.200 394.980,247.920 394.800,248.800 394.800 C 249.680 394.800,250.400 394.620,250.400 394.400 C 250.400 394.180,251.030 394.000,251.800 394.000 C 252.570 394.000,253.200 393.820,253.200 393.600 C 253.200 393.380,253.830 393.200,254.600 393.200 C 255.370 393.200,256.000 393.020,256.000 392.800 C 256.000 392.580,256.630 392.400,257.400 392.400 C 258.170 392.400,258.800 392.220,258.800 392.000 C 258.800 391.780,259.234 391.600,259.764 391.600 C 261.253 391.600,271.140 388.256,274.095 386.753 C 274.477 386.559,275.062 386.400,275.395 386.400 C 275.728 386.400,276.000 386.220,276.000 386.000 C 276.000 385.780,276.355 385.600,276.788 385.600 C 277.221 385.600,278.217 385.240,279.000 384.800 C 279.783 384.360,280.689 384.000,281.012 384.000 C 281.335 384.000,281.600 383.820,281.600 383.600 C 281.600 383.380,281.960 383.200,282.400 383.200 C 282.840 383.200,283.200 383.020,283.200 382.800 C 283.200 382.580,283.650 382.400,284.200 382.400 C 284.750 382.400,285.200 382.220,285.200 382.000 C 285.200 381.780,285.453 381.600,285.762 381.600 C 286.428 381.600,289.741 379.932,289.933 379.500 C 290.007 379.335,290.412 379.200,290.833 379.200 C 291.255 379.200,291.600 379.020,291.600 378.800 C 291.600 378.580,291.960 378.400,292.400 378.400 C 292.840 378.400,293.200 378.220,293.200 378.000 C 293.200 377.780,293.560 377.600,294.000 377.600 C 294.440 377.600,294.800 377.420,294.800 377.200 C 294.800 376.980,295.036 376.800,295.325 376.800 C 295.613 376.800,296.236 376.440,296.708 376.000 C 297.180 375.560,297.748 375.200,297.970 375.200 C 298.642 375.200,301.200 373.874,301.200 373.526 C 301.200 373.347,301.560 373.200,302.000 373.200 C 302.440 373.200,302.800 373.020,302.800 372.800 C 302.800 372.580,302.993 372.400,303.228 372.400 C 303.463 372.400,304.441 371.860,305.400 371.200 C 306.359 370.540,307.297 370.000,307.484 370.000 C 307.671 370.000,308.083 369.640,308.400 369.200 C 308.717 368.760,309.257 368.400,309.600 368.400 C 309.943 368.400,310.483 368.040,310.800 367.600 C 311.117 367.160,311.631 366.800,311.941 366.800 C 312.252 366.800,312.797 366.484,313.153 366.097 C 313.509 365.711,314.295 365.140,314.900 364.830 C 315.505 364.519,316.000 364.115,316.000 363.932 C 316.000 363.750,316.270 363.600,316.600 363.600 C 316.930 363.600,317.200 363.420,317.200 363.200 C 317.200 362.980,317.430 362.800,317.712 362.800 C 317.993 362.800,318.483 362.440,318.800 362.000 C 319.117 361.560,319.625 361.200,319.928 361.200 C 320.231 361.200,320.983 360.660,321.600 360.000 C 322.217 359.340,322.836 358.800,322.977 358.800 C 323.248 358.800,323.648 358.486,325.651 356.700 C 326.329 356.095,327.042 355.600,327.234 355.600 C 327.426 355.600,328.573 354.610,329.783 353.400 C 330.993 352.190,332.157 351.200,332.371 351.200 C 332.584 351.200,334.703 349.230,337.079 346.821 C 342.316 341.514,341.514 342.316,346.821 337.079 C 349.230 334.703,351.200 332.584,351.200 332.371 C 351.200 332.157,352.190 330.993,353.400 329.783 C 354.610 328.573,355.600 327.426,355.600 327.234 C 355.600 327.042,356.095 326.329,356.700 325.651 C 358.486 323.648,358.800 323.248,358.800 322.977 C 358.800 322.836,359.340 322.217,360.000 321.600 C 360.660 320.983,361.200 320.231,361.200 319.928 C 361.200 319.625,361.560 319.117,362.000 318.800 C 362.440 318.483,362.800 317.993,362.800 317.712 C 362.800 317.430,362.980 317.200,363.200 317.200 C 363.420 317.200,363.600 316.930,363.600 316.600 C 363.600 316.270,363.750 316.000,363.932 316.000 C 364.115 316.000,364.519 315.505,364.830 314.900 C 365.140 314.295,365.711 313.509,366.097 313.153 C 366.484 312.797,366.800 312.252,366.800 311.941 C 366.800 311.631,367.160 311.117,367.600 310.800 C 368.040 310.483,368.400 309.943,368.400 309.600 C 368.400 309.257,368.760 308.717,369.200 308.400 C 369.640 308.083,370.000 307.671,370.000 307.484 C 370.000 307.297,370.540 306.359,371.200 305.400 C 371.860 304.441,372.400 303.463,372.400 303.228 C 372.400 302.993,372.580 302.800,372.800 302.800 C 373.020 302.800,373.200 302.440,373.200 302.000 C 373.200 301.560,373.347 301.200,373.526 301.200 C 373.874 301.200,375.200 298.642,375.200 297.970 C 375.200 297.748,375.560 297.180,376.000 296.708 C 376.440 296.236,376.800 295.613,376.800 295.325 C 376.800 295.036,376.980 294.800,377.200 294.800 C 377.420 294.800,377.600 294.440,377.600 294.000 C 377.600 293.560,377.780 293.200,378.000 293.200 C 378.220 293.200,378.400 292.840,378.400 292.400 C 378.400 291.960,378.580 291.600,378.800 291.600 C 379.020 291.600,379.200 291.255,379.200 290.833 C 379.200 290.412,379.335 290.007,379.500 289.933 C 379.932 289.741,381.600 286.428,381.600 285.762 C 381.600 285.453,381.780 285.200,382.000 285.200 C 382.220 285.200,382.400 284.750,382.400 284.200 C 382.400 283.650,382.580 283.200,382.800 283.200 C 383.020 283.200,383.200 282.840,383.200 282.400 C 383.200 281.960,383.380 281.600,383.600 281.600 C 383.820 281.600,384.000 281.335,384.000 281.012 C 384.000 280.689,384.360 279.783,384.800 279.000 C 385.240 278.217,385.600 277.221,385.600 276.788 C 385.600 276.355,385.780 276.000,386.000 276.000 C 386.220 276.000,386.400 275.728,386.400 275.395 C 386.400 275.062,386.559 274.477,386.753 274.095 C 388.256 271.140,391.600 261.253,391.600 259.764 C 391.600 259.234,391.780 258.800,392.000 258.800 C 392.220 258.800,392.400 258.170,392.400 257.400 C 392.400 256.630,392.580 256.000,392.800 256.000 C 393.020 256.000,393.200 255.370,393.200 254.600 C 393.200 253.830,393.380 253.200,393.600 253.200 C 393.820 253.200,394.000 252.570,394.000 251.800 C 394.000 251.030,394.180 250.400,394.400 250.400 C 394.620 250.400,394.800 249.680,394.800 248.800 C 394.800 247.920,394.980 247.200,395.200 247.200 C 395.420 247.200,395.600 246.300,395.600 245.200 C 395.600 244.100,395.780 243.200,396.000 243.200 C 396.220 243.200,396.400 242.480,396.400 241.600 C 396.400 240.720,396.580 240.000,396.800 240.000 C 397.020 240.000,397.200 239.021,397.200 237.824 C 397.200 236.627,397.380 235.536,397.600 235.400 C 397.820 235.264,398.000 234.274,398.000 233.200 C 398.000 232.126,398.180 231.136,398.400 231.000 C 398.620 230.864,398.800 229.539,398.800 228.056 C 398.800 226.433,398.999 225.161,399.300 224.860 C 400.029 224.131,400.029 175.869,399.300 175.140 C 398.999 174.839,398.800 173.567,398.800 171.944 C 398.800 170.461,398.620 169.136,398.400 169.000 C 398.180 168.864,398.000 167.773,398.000 166.576 C 398.000 165.379,397.820 164.400,397.600 164.400 C 397.380 164.400,397.200 163.410,397.200 162.200 C 397.200 160.990,397.020 160.000,396.800 160.000 C 396.580 160.000,396.400 159.280,396.400 158.400 C 396.400 157.520,396.220 156.800,396.000 156.800 C 395.780 156.800,395.600 155.900,395.600 154.800 C 395.600 153.700,395.420 152.800,395.200 152.800 C 394.980 152.800,394.800 152.080,394.800 151.200 C 394.800 150.320,394.620 149.600,394.400 149.600 C 394.180 149.600,394.000 148.970,394.000 148.200 C 394.000 147.430,393.820 146.800,393.600 146.800 C 393.380 146.800,393.200 146.170,393.200 145.400 C 393.200 144.630,393.020 144.000,392.800 144.000 C 392.580 144.000,392.400 143.370,392.400 142.600 C 392.400 141.830,392.220 141.200,392.000 141.200 C 391.780 141.200,391.600 140.765,391.600 140.233 C 391.600 139.404,389.418 132.214,388.433 129.800 C 387.582 127.712,387.077 126.542,386.753 125.905 C 386.559 125.523,386.400 124.938,386.400 124.605 C 386.400 124.272,386.220 124.000,386.000 124.000 C 385.780 124.000,385.600 123.561,385.600 123.024 C 385.600 122.487,385.420 121.936,385.200 121.800 C 384.980 121.664,384.800 121.203,384.800 120.776 C 384.800 120.349,384.620 120.000,384.400 120.000 C 384.180 120.000,384.000 119.640,384.000 119.200 C 384.000 118.760,383.820 118.400,383.600 118.400 C 383.380 118.400,383.200 118.040,383.200 117.600 C 383.200 117.160,383.020 116.800,382.800 116.800 C 382.580 116.800,382.400 116.350,382.400 115.800 C 382.400 115.250,382.220 114.800,382.000 114.800 C 381.780 114.800,381.600 114.566,381.600 114.280 C 381.600 113.544,380.659 111.607,380.300 111.603 C 380.135 111.601,380.000 111.240,380.000 110.800 C 380.000 110.360,379.820 110.000,379.600 110.000 C 379.380 110.000,379.200 109.640,379.200 109.200 C 379.200 108.760,379.020 108.400,378.800 108.400 C 378.580 108.400,378.400 108.040,378.400 107.600 C 378.400 107.160,378.220 106.800,378.000 106.800 C 377.780 106.800,377.600 106.440,377.600 106.000 C 377.600 105.560,377.420 105.200,377.200 105.200 C 376.980 105.200,376.800 104.964,376.800 104.675 C 376.800 104.387,376.440 103.764,376.000 103.292 C 375.560 102.820,375.200 102.252,375.200 102.030 C 375.200 101.358,373.874 98.800,373.526 98.800 C 373.347 98.800,373.200 98.440,373.200 98.000 C 373.200 97.560,373.020 97.200,372.800 97.200 C 372.580 97.200,372.400 97.007,372.400 96.772 C 372.400 96.537,371.860 95.559,371.200 94.600 C 370.540 93.641,370.000 92.703,370.000 92.516 C 370.000 92.329,369.640 91.917,369.200 91.600 C 368.760 91.283,368.400 90.743,368.400 90.400 C 368.400 90.057,368.040 89.517,367.600 89.200 C 367.160 88.883,366.800 88.369,366.800 88.059 C 366.800 87.748,366.484 87.203,366.097 86.847 C 365.711 86.491,365.140 85.705,364.830 85.100 C 364.519 84.495,364.115 84.000,363.932 84.000 C 363.750 84.000,363.600 83.730,363.600 83.400 C 363.600 83.070,363.420 82.800,363.200 82.800 C 362.980 82.800,362.800 82.570,362.800 82.288 C 362.800 82.007,362.440 81.517,362.000 81.200 C 361.560 80.883,361.200 80.375,361.200 80.072 C 361.200 79.769,360.660 79.017,360.000 78.400 C 359.340 77.783,358.800 77.126,358.800 76.939 C 358.800 76.753,358.080 75.812,357.200 74.849 C 356.320 73.887,355.600 72.946,355.600 72.758 C 355.600 72.571,354.610 71.427,353.400 70.217 C 352.190 69.007,351.200 67.850,351.200 67.645 C 351.200 67.440,349.225 65.321,346.811 62.936 C 344.397 60.551,342.192 58.364,341.911 58.076 C 337.045 53.085,333.059 49.200,332.804 49.200 C 332.627 49.200,331.350 48.120,329.967 46.800 C 328.584 45.480,327.325 44.400,327.169 44.400 C 327.012 44.400,326.329 43.905,325.651 43.300 C 323.588 41.461,323.247 41.200,322.905 41.200 C 322.724 41.200,322.317 40.840,322.000 40.400 C 321.683 39.960,321.183 39.600,320.888 39.600 C 320.594 39.600,320.464 39.420,320.600 39.200 C 320.736 38.980,320.516 38.800,320.112 38.800 C 319.707 38.800,319.117 38.440,318.800 38.000 C 318.483 37.560,317.993 37.200,317.712 37.200 C 317.430 37.200,317.200 37.020,317.200 36.800 C 317.200 36.580,316.930 36.400,316.600 36.400 C 316.270 36.400,316.000 36.250,316.000 36.068 C 316.000 35.885,315.505 35.481,314.900 35.170 C 314.295 34.860,313.509 34.289,313.153 33.903 C 312.797 33.516,312.252 33.200,311.941 33.200 C 311.631 33.200,311.117 32.840,310.800 32.400 C 310.483 31.960,309.943 31.600,309.600 31.600 C 309.257 31.600,308.717 31.240,308.400 30.800 C 308.083 30.360,307.671 30.000,307.484 30.000 C 307.297 30.000,306.359 29.460,305.400 28.800 C 304.441 28.140,303.463 27.600,303.228 27.600 C 302.993 27.600,302.800 27.420,302.800 27.200 C 302.800 26.980,302.440 26.800,302.000 26.800 C 301.560 26.800,301.200 26.632,301.200 26.427 C 301.200 26.047,299.646 25.377,299.100 25.521 C 298.935 25.564,298.800 25.420,298.800 25.200 C 298.800 24.980,298.522 24.800,298.183 24.800 C 297.844 24.800,297.180 24.440,296.708 24.000 C 296.236 23.560,295.613 23.200,295.325 23.200 C 295.036 23.200,294.800 23.020,294.800 22.800 C 294.800 22.580,294.440 22.400,294.000 22.400 C 293.560 22.400,293.200 22.220,293.200 22.000 C 293.200 21.780,292.840 21.600,292.400 21.600 C 291.960 21.600,291.600 21.420,291.600 21.200 C 291.600 20.980,291.255 20.800,290.833 20.800 C 290.412 20.800,290.007 20.665,289.933 20.500 C 289.741 20.068,286.428 18.400,285.762 18.400 C 285.453 18.400,285.200 18.220,285.200 18.000 C 285.200 17.780,284.750 17.600,284.200 17.600 C 283.650 17.600,283.200 17.420,283.200 17.200 C 283.200 16.980,282.840 16.800,282.400 16.800 C 281.960 16.800,281.600 16.620,281.600 16.400 C 281.600 16.180,281.240 16.000,280.800 16.000 C 280.360 16.000,280.000 15.853,280.000 15.672 C 280.000 15.492,279.100 15.100,278.000 14.800 C 276.900 14.500,276.000 14.108,276.000 13.928 C 276.000 13.747,275.728 13.600,275.395 13.600 C 275.062 13.600,274.477 13.441,274.095 13.247 C 271.234 11.792,261.194 8.400,259.747 8.400 C 259.226 8.400,258.800 8.220,258.800 8.000 C 258.800 7.780,258.170 7.600,257.400 7.600 C 256.630 7.600,256.000 7.420,256.000 7.200 C 256.000 6.980,255.370 6.800,254.600 6.800 C 253.830 6.800,253.200 6.620,253.200 6.400 C 253.200 6.180,252.570 6.000,251.800 6.000 C 251.030 6.000,250.400 5.820,250.400 5.600 C 250.400 5.380,249.680 5.200,248.800 5.200 C 247.920 5.200,247.200 5.020,247.200 4.800 C 247.200 4.580,246.300 4.400,245.200 4.400 C 244.100 4.400,243.200 4.220,243.200 4.000 C 243.200 3.780,242.480 3.600,241.600 3.600 C 240.720 3.600,240.000 3.420,240.000 3.200 C 240.000 2.980,239.010 2.800,237.800 2.800 C 236.590 2.800,235.600 2.620,235.600 2.400 C 235.600 2.180,234.621 2.000,233.424 2.000 C 232.227 2.000,231.136 1.820,231.000 1.600 C 230.864 1.380,229.539 1.200,228.056 1.200 C 226.478 1.200,225.159 0.999,224.875 0.715 C 224.394 0.234,187.860 -0.116,179.003 0.275 M149.905 87.566 C 150.287 87.768,151.230 88.207,152.000 88.541 C 152.770 88.876,154.030 89.768,154.800 90.523 C 158.594 94.244,158.790 95.013,159.619 109.400 C 159.809 112.700,160.149 116.750,160.373 118.400 C 160.598 120.050,160.885 122.300,161.012 123.400 C 161.138 124.500,161.401 125.760,161.596 126.200 C 161.791 126.640,162.058 127.720,162.191 128.600 C 162.323 129.480,162.533 130.876,162.658 131.703 C 162.782 132.529,163.045 133.305,163.242 133.426 C 163.439 133.548,163.600 134.256,163.600 135.000 C 163.600 135.744,163.780 136.464,164.000 136.600 C 164.220 136.736,164.400 137.289,164.400 137.829 C 164.400 138.369,164.563 139.123,164.761 139.505 C 164.960 139.887,165.578 141.660,166.134 143.444 C 167.232 146.969,170.272 154.883,171.879 158.400 C 172.432 159.610,173.023 160.960,173.192 161.400 C 173.362 161.840,173.703 162.703,173.950 163.319 C 174.508 164.705,174.543 169.064,174.000 169.400 C 173.780 169.536,173.600 169.992,173.600 170.413 C 173.600 172.156,169.482 177.600,168.163 177.600 C 167.890 177.600,167.607 177.735,167.533 177.900 C 167.341 178.332,164.028 180.000,163.362 180.000 C 163.053 180.000,162.800 180.180,162.800 180.400 C 162.800 180.620,162.583 180.800,162.318 180.800 C 161.951 180.800,149.843 186.563,149.289 187.001 C 149.054 187.187,150.076 189.120,152.000 192.131 C 153.100 193.853,154.000 195.346,154.000 195.448 C 154.000 195.550,154.183 195.851,154.406 196.117 C 155.726 197.688,158.800 202.097,158.800 202.418 C 158.800 202.628,158.941 202.800,159.114 202.800 C 159.286 202.800,159.743 203.333,160.128 203.985 C 160.513 204.637,161.049 205.402,161.320 205.685 C 161.590 205.968,162.434 207.010,163.195 208.000 C 163.957 208.990,164.682 209.890,164.807 210.000 C 164.932 210.110,166.335 211.768,167.924 213.684 C 171.376 217.847,181.075 227.682,185.017 231.017 C 191.290 236.324,192.187 237.061,194.152 238.522 C 195.279 239.359,196.487 240.279,196.838 240.565 C 197.570 241.162,202.180 244.401,203.151 245.000 C 203.508 245.220,203.890 245.508,204.000 245.640 C 204.110 245.772,204.380 245.952,204.600 246.040 C 204.820 246.128,206.318 247.010,207.930 248.000 C 213.592 251.479,212.973 251.277,213.589 249.850 C 214.151 248.550,220.581 235.127,221.230 233.900 C 222.315 231.847,222.735 231.261,224.200 229.749 C 226.078 227.810,228.431 226.400,229.789 226.400 C 230.319 226.400,230.864 226.220,231.000 226.000 C 231.136 225.780,232.216 225.600,233.400 225.600 C 234.584 225.600,235.664 225.780,235.800 226.000 C 235.936 226.220,236.489 226.400,237.029 226.400 C 237.569 226.400,238.323 226.564,238.705 226.765 C 239.396 227.128,242.155 228.393,245.600 229.925 C 248.576 231.249,259.073 234.814,263.400 235.971 C 264.821 236.351,267.165 236.970,269.446 237.568 C 270.352 237.806,271.621 238.000,272.266 238.000 C 272.912 238.000,273.611 238.163,273.820 238.363 C 274.029 238.563,275.100 238.828,276.200 238.952 C 277.300 239.076,279.550 239.366,281.200 239.595 C 282.850 239.824,286.810 240.175,290.000 240.374 C 301.348 241.081,304.000 241.325,304.000 241.660 C 304.000 241.847,304.272 242.000,304.605 242.000 C 306.467 242.000,310.258 245.389,311.547 248.206 C 311.847 248.863,312.252 249.713,312.447 250.095 C 312.908 251.002,312.908 302.998,312.447 303.905 C 312.252 304.287,311.852 305.140,311.558 305.800 C 310.869 307.343,307.354 310.862,305.800 311.564 C 305.140 311.863,304.224 312.278,303.765 312.486 C 302.056 313.263,282.280 312.441,272.600 311.192 C 270.840 310.964,268.410 310.678,267.200 310.554 C 265.990 310.431,264.829 310.165,264.620 309.965 C 264.411 309.764,263.412 309.600,262.400 309.600 C 261.388 309.600,260.389 309.437,260.180 309.239 C 259.971 309.040,258.990 308.782,258.000 308.665 C 255.327 308.348,253.498 307.988,252.600 307.600 C 252.160 307.410,251.260 307.164,250.600 307.053 C 248.458 306.694,245.840 306.073,244.000 305.488 C 243.010 305.173,241.390 304.691,240.400 304.417 C 237.729 303.677,229.921 301.215,229.000 300.822 C 228.560 300.634,227.570 300.264,226.800 300.000 C 226.030 299.736,224.995 299.357,224.500 299.160 C 224.005 298.962,223.150 298.620,222.600 298.400 C 222.050 298.180,221.195 297.844,220.700 297.654 C 218.467 296.794,217.689 296.459,216.062 295.657 C 215.106 295.186,214.071 294.800,213.762 294.800 C 213.453 294.800,213.200 294.620,213.200 294.400 C 213.200 294.180,212.947 294.000,212.638 294.000 C 212.329 294.000,211.384 293.663,210.538 293.252 C 203.452 289.804,194.000 284.878,193.600 284.425 C 193.490 284.301,192.860 283.933,192.200 283.609 C 191.540 283.285,189.703 282.160,188.118 281.110 C 186.533 280.059,185.048 279.200,184.818 279.200 C 184.588 279.200,184.400 279.020,184.400 278.800 C 184.400 278.580,184.130 278.400,183.800 278.400 C 183.470 278.400,183.200 278.220,183.200 278.000 C 183.200 277.780,183.012 277.600,182.783 277.600 C 182.554 277.600,181.980 277.240,181.508 276.800 C 181.036 276.360,180.413 276.000,180.125 276.000 C 179.836 276.000,179.600 275.862,179.600 275.694 C 179.600 275.526,178.880 274.944,178.000 274.400 C 177.120 273.856,176.400 273.295,176.400 273.154 C 176.400 273.013,175.860 272.673,175.200 272.400 C 174.540 272.127,174.000 271.757,174.000 271.578 C 174.000 271.400,173.685 271.154,173.300 271.031 C 172.915 270.909,172.150 270.396,171.600 269.892 C 171.050 269.387,169.880 268.441,169.000 267.790 C 168.120 267.138,167.310 266.511,167.200 266.397 C 167.090 266.283,166.010 265.385,164.800 264.402 C 163.590 263.419,162.330 262.338,162.000 262.000 C 161.670 261.662,160.410 260.583,159.200 259.603 C 156.348 257.292,142.708 243.652,140.397 240.800 C 139.417 239.590,138.332 238.330,137.986 238.000 C 137.640 237.670,136.132 235.870,134.634 234.000 C 133.137 232.130,131.614 230.240,131.250 229.800 C 130.886 229.360,130.146 228.370,129.605 227.600 C 129.064 226.830,128.302 225.851,127.911 225.425 C 127.520 224.998,127.200 224.413,127.200 224.125 C 127.200 223.836,127.062 223.600,126.894 223.600 C 126.726 223.600,126.144 222.880,125.600 222.000 C 125.056 221.120,124.474 220.400,124.306 220.400 C 124.138 220.400,124.000 220.130,124.000 219.800 C 124.000 219.470,123.820 219.200,123.600 219.200 C 123.380 219.200,123.200 218.930,123.200 218.600 C 123.200 218.270,123.020 218.000,122.800 218.000 C 122.580 218.000,122.400 217.812,122.400 217.582 C 122.400 217.352,121.514 215.851,120.431 214.246 C 117.612 210.068,115.093 205.755,111.997 199.800 C 107.291 190.751,106.000 188.074,106.000 187.362 C 106.000 187.053,105.820 186.800,105.600 186.800 C 105.380 186.800,105.200 186.547,105.200 186.238 C 105.200 185.929,104.814 184.894,104.343 183.938 C 103.541 182.311,103.206 181.533,102.346 179.300 C 101.752 177.755,101.215 176.435,100.803 175.500 C 100.034 173.758,96.000 161.273,96.000 160.635 C 96.000 160.280,95.842 159.677,95.649 159.295 C 95.065 158.139,94.400 155.796,94.400 154.895 C 94.400 154.429,94.220 153.936,94.000 153.800 C 93.780 153.664,93.600 152.944,93.600 152.200 C 93.600 151.456,93.420 150.736,93.200 150.600 C 92.980 150.464,92.800 149.744,92.800 149.000 C 92.800 148.256,92.620 147.536,92.400 147.400 C 92.180 147.264,92.000 146.454,92.000 145.600 C 92.000 144.746,91.820 143.936,91.600 143.800 C 91.380 143.664,91.200 142.764,91.200 141.800 C 91.200 140.836,91.020 139.936,90.800 139.800 C 90.580 139.664,90.400 138.699,90.400 137.656 C 90.400 136.613,90.240 135.589,90.043 135.380 C 89.847 135.171,89.576 133.920,89.440 132.600 C 89.304 131.280,89.012 128.850,88.792 127.200 C 87.449 117.174,86.769 98.964,87.635 96.226 C 88.762 92.660,92.214 89.066,95.778 87.748 C 97.306 87.182,148.849 87.009,149.905 87.566 " stroke="none" fill="#2494f4" fill-rule="evenodd"></path><path id="path2" d="M111.500 87.500 C 117.935 87.562,128.465 87.562,134.900 87.500 C 141.335 87.438,136.070 87.387,123.200 87.387 C 110.330 87.387,105.065 87.438,111.500 87.500 M90.981 91.300 L 89.400 93.000 91.100 91.419 C 92.035 90.549,92.800 89.784,92.800 89.719 C 92.800 89.416,92.452 89.719,90.981 91.300 M158.501 98.600 C 158.505 99.480,158.587 99.793,158.683 99.295 C 158.779 98.798,158.775 98.078,158.675 97.695 C 158.575 97.313,158.496 97.720,158.501 98.600 M158.901 108.200 C 158.905 109.080,158.987 109.393,159.083 108.895 C 159.179 108.398,159.175 107.678,159.075 107.295 C 158.975 106.913,158.896 107.320,158.901 108.200 M159.320 112.400 C 159.320 113.610,159.395 114.105,159.487 113.500 C 159.578 112.895,159.578 111.905,159.487 111.300 C 159.395 110.695,159.320 111.190,159.320 112.400 M87.693 112.800 C 87.693 113.570,87.775 113.885,87.876 113.500 C 87.976 113.115,87.976 112.485,87.876 112.100 C 87.775 111.715,87.693 112.030,87.693 112.800 M88.124 117.400 C 88.126 118.720,88.201 119.212,88.290 118.493 C 88.379 117.774,88.377 116.694,88.286 116.093 C 88.195 115.492,88.122 116.080,88.124 117.400 M160.093 119.600 C 160.093 120.370,160.175 120.685,160.276 120.300 C 160.376 119.915,160.376 119.285,160.276 118.900 C 160.175 118.515,160.093 118.830,160.093 119.600 M88.893 125.200 C 88.893 125.970,88.975 126.285,89.076 125.900 C 89.176 125.515,89.176 124.885,89.076 124.500 C 88.975 124.115,88.893 124.430,88.893 125.200 M89.693 132.000 C 89.693 132.770,89.775 133.085,89.876 132.700 C 89.976 132.315,89.976 131.685,89.876 131.300 C 89.775 130.915,89.693 131.230,89.693 132.000 M163.600 179.400 C 163.050 179.714,162.780 179.972,163.000 179.972 C 163.220 179.972,163.850 179.714,164.400 179.400 C 164.950 179.086,165.220 178.828,165.000 178.828 C 164.780 178.828,164.150 179.086,163.600 179.400 M148.976 186.573 C 148.315 187.061,148.283 187.224,148.759 187.673 C 149.220 188.108,149.265 188.108,149.019 187.673 C 148.839 187.356,149.015 186.924,149.460 186.586 C 149.867 186.278,150.099 186.020,149.976 186.013 C 149.854 186.006,149.404 186.258,148.976 186.573 M170.783 217.700 C 172.441 219.466,172.800 219.784,172.800 219.483 C 172.800 219.419,171.945 218.564,170.900 217.583 L 169.000 215.800 170.783 217.700 M176.200 223.600 C 177.283 224.700,178.260 225.600,178.370 225.600 C 178.480 225.600,177.683 224.700,176.600 223.600 C 175.517 222.500,174.540 221.600,174.430 221.600 C 174.320 221.600,175.117 222.500,176.200 223.600 M232.505 226.287 C 233.114 226.379,234.014 226.377,234.505 226.282 C 234.997 226.187,234.500 226.111,233.400 226.114 C 232.300 226.117,231.897 226.195,232.505 226.287 M182.200 229.200 C 183.283 230.300,184.260 231.200,184.370 231.200 C 184.480 231.200,183.683 230.300,182.600 229.200 C 181.517 228.100,180.540 227.200,180.430 227.200 C 180.320 227.200,181.117 228.100,182.200 229.200 M225.096 229.300 C 223.919 230.455,223.685 230.752,224.578 229.959 C 225.470 229.167,226.645 228.222,227.189 227.859 C 227.733 227.497,227.966 227.200,227.708 227.200 C 227.449 227.200,226.274 228.145,225.096 229.300 M184.917 231.464 C 185.261 232.023,189.200 235.354,189.200 235.086 C 189.200 234.982,188.172 234.020,186.916 232.949 C 185.660 231.877,184.761 231.209,184.917 231.464 M137.600 237.325 C 137.600 237.394,138.185 237.979,138.900 238.625 L 140.200 239.800 139.025 238.500 C 137.930 237.288,137.600 237.016,137.600 237.325 M194.000 238.946 C 194.000 239.056,194.540 239.530,195.200 240.000 C 195.860 240.470,196.400 240.764,196.400 240.654 C 196.400 240.544,195.860 240.070,195.200 239.600 C 194.540 239.130,194.000 238.836,194.000 238.946 M279.300 239.876 C 279.685 239.976,280.315 239.976,280.700 239.876 C 281.085 239.775,280.770 239.693,280.000 239.693 C 279.230 239.693,278.915 239.775,279.300 239.876 M285.507 240.690 C 286.226 240.779,287.306 240.777,287.907 240.686 C 288.508 240.595,287.920 240.522,286.600 240.524 C 285.280 240.526,284.788 240.601,285.507 240.690 M290.500 241.076 C 290.885 241.176,291.515 241.176,291.900 241.076 C 292.285 240.975,291.970 240.893,291.200 240.893 C 290.430 240.893,290.115 240.975,290.500 241.076 M298.700 241.489 C 299.415 241.578,300.585 241.578,301.300 241.489 C 302.015 241.401,301.430 241.328,300.000 241.328 C 298.570 241.328,297.985 241.401,298.700 241.489 M146.200 246.800 C 147.728 248.340,149.069 249.600,149.179 249.600 C 149.289 249.600,148.128 248.340,146.600 246.800 C 145.072 245.260,143.731 244.000,143.621 244.000 C 143.511 244.000,144.672 245.260,146.200 246.800 M213.446 250.624 C 213.281 251.054,212.951 251.191,212.497 251.018 C 211.936 250.804,211.898 250.852,212.303 251.259 C 212.708 251.668,212.936 251.635,213.479 251.092 C 213.849 250.722,214.050 250.317,213.926 250.192 C 213.801 250.068,213.585 250.262,213.446 250.624 M153.000 253.600 C 154.528 255.140,155.869 256.400,155.979 256.400 C 156.089 256.400,154.928 255.140,153.400 253.600 C 151.872 252.060,150.531 250.800,150.421 250.800 C 150.311 250.800,151.472 252.060,153.000 253.600 M312.588 277.000 C 312.588 290.640,312.638 296.278,312.700 289.529 C 312.761 282.780,312.761 271.620,312.700 264.729 C 312.638 257.838,312.588 263.360,312.588 277.000 M160.400 260.125 C 160.400 260.194,160.985 260.779,161.700 261.425 L 163.000 262.600 161.825 261.300 C 160.730 260.088,160.400 259.816,160.400 260.125 M175.633 272.530 C 175.725 272.601,176.430 273.066,177.200 273.563 L 178.600 274.466 177.400 273.435 C 176.740 272.868,176.035 272.403,175.833 272.402 C 175.632 272.401,175.542 272.458,175.633 272.530 M186.600 279.807 C 187.040 280.166,187.760 280.635,188.200 280.851 L 189.000 281.244 188.200 280.593 C 187.760 280.234,187.040 279.765,186.600 279.549 L 185.800 279.156 186.600 279.807 M253.600 307.582 C 253.930 307.805,254.545 307.991,254.967 307.994 C 255.990 308.002,255.671 307.773,254.200 307.444 C 253.324 307.248,253.162 307.285,253.600 307.582 M266.900 310.276 C 267.285 310.376,267.915 310.376,268.300 310.276 C 268.685 310.175,268.370 310.093,267.600 310.093 C 266.830 310.093,266.515 310.175,266.900 310.276 M273.505 311.083 C 274.002 311.179,274.722 311.175,275.105 311.075 C 275.487 310.975,275.080 310.896,274.200 310.901 C 273.320 310.905,273.007 310.987,273.505 311.083 M280.300 311.889 C 281.015 311.978,282.185 311.978,282.900 311.889 C 283.615 311.801,283.030 311.728,281.600 311.728 C 280.170 311.728,279.585 311.801,280.300 311.889 M286.100 312.276 C 286.485 312.376,287.115 312.376,287.500 312.276 C 287.885 312.175,287.570 312.093,286.800 312.093 C 286.030 312.093,285.715 312.175,286.100 312.276 M295.913 312.695 C 297.076 312.776,298.876 312.776,299.913 312.693 C 300.951 312.611,300.000 312.545,297.800 312.546 C 295.600 312.547,294.751 312.614,295.913 312.695 " stroke="none" fill="#76bef4" fill-rule="evenodd"></path><path id="path3" d="M96.800 88.000 C 96.042 88.490,97.270 88.490,98.800 88.000 C 99.780 87.686,99.776 87.679,98.600 87.646 C 97.940 87.627,97.130 87.787,96.800 88.000 M147.600 88.000 C 148.150 88.176,148.960 88.326,149.400 88.332 L 150.200 88.344 149.400 88.000 C 148.960 87.811,148.150 87.662,147.600 87.668 L 146.600 87.680 147.600 88.000 M152.147 89.607 C 154.489 91.093,155.721 92.299,156.570 93.941 C 156.928 94.633,157.310 95.200,157.418 95.200 C 158.602 95.200,154.792 90.676,152.400 89.242 C 150.225 87.939,150.009 88.251,152.147 89.607 M157.634 96.200 C 157.622 96.640,157.787 97.270,158.000 97.600 C 158.514 98.395,158.514 97.396,158.000 96.200 L 157.656 95.400 157.634 96.200 M87.873 96.953 C 87.723 97.345,87.616 98.146,87.636 98.733 C 87.670 99.728,87.698 99.709,88.057 98.463 C 88.473 97.019,88.323 95.782,87.873 96.953 M158.471 105.200 C 158.476 108.170,158.615 111.050,158.781 111.600 C 158.946 112.150,159.003 109.900,158.908 106.600 C 158.686 98.943,158.461 98.219,158.471 105.200 M87.640 106.433 C 87.661 108.945,87.826 111.990,88.005 113.200 C 88.206 114.558,88.249 112.874,88.117 108.800 C 87.870 101.172,87.582 99.741,87.640 106.433 M159.228 116.233 C 159.244 117.315,159.412 118.560,159.602 119.000 C 159.816 119.495,159.860 118.810,159.718 117.200 C 159.439 114.043,159.190 113.551,159.228 116.233 M88.470 119.600 C 88.457 120.370,88.595 121.720,88.777 122.600 L 89.108 124.200 89.107 122.400 C 89.106 121.410,88.968 120.060,88.800 119.400 L 88.495 118.200 88.470 119.600 M160.006 122.233 C 160.009 123.095,160.188 124.070,160.403 124.400 C 160.670 124.810,160.714 124.365,160.541 123.000 C 160.225 120.505,159.998 120.181,160.006 122.233 M89.270 126.400 C 89.264 126.950,89.403 128.210,89.580 129.200 L 89.900 131.000 89.910 129.200 C 89.916 128.210,89.776 126.950,89.600 126.400 L 89.280 125.400 89.270 126.400 M160.846 126.800 C 160.827 127.350,160.987 128.070,161.200 128.400 C 161.694 129.164,161.694 128.342,161.200 126.800 L 160.880 125.800 160.846 126.800 M161.600 130.910 C 161.600 131.483,161.787 132.068,162.016 132.210 C 162.289 132.379,162.338 132.077,162.160 131.334 C 161.792 129.801,161.600 129.656,161.600 130.910 M90.238 133.800 C 90.570 135.784,90.802 136.104,90.794 134.567 C 90.791 133.925,90.604 133.130,90.379 132.800 C 90.086 132.370,90.046 132.654,90.238 133.800 M162.434 134.200 C 162.422 134.640,162.587 135.270,162.800 135.600 C 163.314 136.395,163.314 135.396,162.800 134.200 L 162.456 133.400 162.434 134.200 M163.234 137.000 C 163.222 137.440,163.387 138.070,163.600 138.400 C 164.114 139.195,164.114 138.196,163.600 137.000 L 163.256 136.200 163.234 137.000 M91.038 138.200 C 91.370 140.184,91.602 140.504,91.594 138.967 C 91.591 138.325,91.404 137.530,91.179 137.200 C 90.886 136.770,90.846 137.054,91.038 138.200 M164.012 140.000 C 164.012 140.330,164.187 140.870,164.400 141.200 C 164.745 141.733,164.788 141.733,164.788 141.200 C 164.788 140.870,164.613 140.330,164.400 140.000 C 164.055 139.467,164.012 139.467,164.012 140.000 M91.838 142.600 C 92.170 144.584,92.402 144.904,92.394 143.367 C 92.391 142.725,92.204 141.930,91.979 141.600 C 91.686 141.170,91.646 141.454,91.838 142.600 M164.812 142.400 C 164.812 142.730,164.987 143.270,165.200 143.600 C 165.545 144.133,165.588 144.133,165.588 143.600 C 165.588 143.270,165.413 142.730,165.200 142.400 C 164.855 141.867,164.812 141.867,164.812 142.400 M165.612 144.800 C 165.612 145.130,165.787 145.670,166.000 146.000 C 166.345 146.533,166.388 146.533,166.388 146.000 C 166.388 145.670,166.213 145.130,166.000 144.800 C 165.655 144.267,165.612 144.267,165.612 144.800 M92.446 145.200 C 92.465 145.530,92.624 146.250,92.800 146.800 L 93.120 147.800 93.154 146.800 C 93.173 146.250,93.013 145.530,92.800 145.200 C 92.455 144.667,92.416 144.667,92.446 145.200 M166.412 147.200 C 166.412 147.530,166.587 148.070,166.800 148.400 C 167.145 148.933,167.188 148.933,167.188 148.400 C 167.188 148.070,167.013 147.530,166.800 147.200 C 166.455 146.667,166.412 146.667,166.412 147.200 M93.438 149.800 C 93.770 151.784,94.002 152.104,93.994 150.567 C 93.991 149.925,93.804 149.130,93.579 148.800 C 93.286 148.370,93.246 148.654,93.438 149.800 M94.240 153.066 C 94.608 154.599,94.800 154.744,94.800 153.490 C 94.800 152.917,94.613 152.332,94.384 152.190 C 94.111 152.021,94.062 152.323,94.240 153.066 M168.812 153.322 C 168.795 153.785,170.383 157.200,170.615 157.200 C 170.828 157.200,169.895 154.839,169.234 153.704 C 169.009 153.317,168.819 153.145,168.812 153.322 M95.040 155.866 C 95.408 157.399,95.600 157.544,95.600 156.290 C 95.600 155.717,95.413 155.132,95.184 154.990 C 94.911 154.821,94.862 155.123,95.040 155.866 M95.853 158.600 C 96.190 160.343,99.674 170.859,99.855 170.679 C 100.003 170.531,96.664 159.817,95.967 158.200 C 95.713 157.612,95.683 157.718,95.853 158.600 M170.828 157.704 C 170.813 157.872,171.141 158.772,171.557 159.704 C 171.973 160.637,172.427 161.741,172.566 162.157 C 172.705 162.574,172.919 162.815,173.041 162.693 C 173.163 162.571,172.721 161.330,172.059 159.935 C 171.397 158.541,170.843 157.537,170.828 157.704 M173.289 166.600 C 173.289 169.770,173.331 169.984,173.639 168.389 C 173.839 167.354,173.838 165.811,173.638 164.789 C 173.331 163.222,173.288 163.446,173.289 166.600 M172.269 171.953 C 171.562 173.554,169.796 175.627,168.537 176.331 C 168.135 176.556,167.928 176.861,168.075 177.009 C 168.490 177.423,171.728 173.986,172.543 172.268 C 172.942 171.425,173.196 170.663,173.108 170.575 C 173.020 170.486,172.642 171.107,172.269 171.953 M100.021 171.390 C 99.991 171.951,102.099 177.235,102.280 177.053 C 102.363 176.970,101.894 175.574,101.236 173.951 C 100.579 172.328,100.032 171.176,100.021 171.390 M157.600 182.000 C 156.830 182.422,156.380 182.766,156.600 182.766 C 156.820 182.766,157.630 182.422,158.400 182.000 C 159.170 181.578,159.620 181.234,159.400 181.234 C 159.180 181.234,158.370 181.578,157.600 182.000 M152.116 184.565 C 150.122 185.535,148.368 186.528,148.217 186.772 C 147.932 187.233,149.542 190.191,149.889 189.844 C 149.998 189.735,149.708 189.113,149.244 188.461 C 148.088 186.838,147.956 186.993,152.200 184.969 C 155.430 183.429,156.495 182.800,155.871 182.800 C 155.800 182.800,154.110 183.594,152.116 184.565 M104.817 183.900 C 104.839 184.301,106.362 187.070,106.383 186.749 C 106.411 186.335,105.205 183.600,104.995 183.600 C 104.888 183.600,104.808 183.735,104.817 183.900 M106.417 187.500 C 106.426 187.665,106.778 188.430,107.200 189.200 C 108.121 190.882,108.265 190.255,107.371 188.461 C 106.767 187.252,106.381 186.863,106.417 187.500 M150.101 190.600 C 151.023 192.293,154.504 197.746,155.623 199.252 C 156.380 200.270,158.260 202.833,159.800 204.946 C 161.340 207.060,162.720 208.792,162.866 208.795 C 163.013 208.798,161.753 206.934,160.066 204.653 C 156.172 199.387,154.404 196.853,152.356 193.600 C 150.960 191.385,149.390 189.296,150.101 190.600 M112.009 198.800 C 114.391 203.582,121.702 215.678,125.126 220.500 C 127.813 224.284,126.681 222.265,122.660 216.100 C 118.661 209.970,116.499 206.350,113.400 200.600 C 111.681 197.409,110.655 196.082,112.009 198.800 M163.674 209.900 C 164.002 210.285,165.224 211.770,166.389 213.200 C 169.065 216.485,174.400 222.147,174.400 221.702 C 174.400 221.518,173.574 220.564,172.564 219.583 C 171.555 218.602,169.094 215.865,167.096 213.500 C 165.098 211.135,163.376 209.200,163.269 209.200 C 163.163 209.200,163.345 209.515,163.674 209.900 M128.697 225.503 C 131.414 229.207,136.505 235.575,138.208 237.400 L 140.075 239.400 138.337 237.247 C 137.382 236.062,135.378 233.542,133.885 231.647 C 132.391 229.751,130.805 227.750,130.360 227.200 C 129.915 226.650,129.253 225.705,128.889 225.100 C 128.525 224.495,128.085 224.000,127.911 224.000 C 127.737 224.000,128.091 224.676,128.697 225.503 M180.657 228.234 C 183.865 231.314,191.607 237.738,191.584 237.301 C 191.576 237.135,190.290 236.010,188.728 234.800 C 187.165 233.590,184.221 231.025,182.185 229.100 C 180.149 227.175,178.355 225.600,178.199 225.600 C 178.042 225.600,179.149 226.785,180.657 228.234 M231.911 226.693 C 232.851 226.778,234.291 226.777,235.111 226.691 C 235.930 226.605,235.160 226.536,233.400 226.537 C 231.640 226.539,230.970 226.609,231.911 226.693 M228.800 227.082 C 227.682 227.489,225.557 228.890,225.756 229.089 C 225.865 229.198,226.487 228.908,227.139 228.444 C 227.790 227.980,228.510 227.600,228.738 227.600 C 228.966 227.600,229.264 227.420,229.400 227.200 C 229.670 226.764,229.672 226.764,228.800 227.082 M239.200 227.765 C 239.200 228.009,241.631 229.200,242.128 229.200 C 242.351 229.200,242.449 229.116,242.346 229.013 C 242.033 228.700,239.200 227.577,239.200 227.765 M242.800 229.365 C 242.800 229.851,254.695 234.639,255.041 234.292 C 255.126 234.207,253.351 233.456,251.098 232.622 C 247.669 231.354,244.474 230.031,243.100 229.310 C 242.935 229.224,242.800 229.248,242.800 229.365 M223.804 230.796 C 223.174 231.454,222.742 232.075,222.844 232.177 C 222.946 232.279,223.526 231.741,224.132 230.981 C 225.487 229.283,225.336 229.197,223.804 230.796 M221.072 235.419 C 220.132 237.389,220.264 237.724,221.247 235.862 C 221.693 235.016,221.987 234.254,221.901 234.167 C 221.814 234.081,221.441 234.644,221.072 235.419 M257.586 235.234 C 258.788 235.661,259.950 235.950,260.167 235.878 C 260.627 235.724,256.707 234.386,255.925 234.429 C 255.636 234.445,256.384 234.807,257.586 235.234 M261.400 236.400 C 262.596 236.914,263.595 236.914,262.800 236.400 C 262.470 236.187,261.840 236.022,261.400 236.034 L 260.600 236.056 261.400 236.400 M264.400 237.200 C 264.730 237.413,265.360 237.578,265.800 237.566 L 266.600 237.544 265.800 237.200 C 264.604 236.686,263.605 236.686,264.400 237.200 M192.140 237.903 C 192.296 238.156,192.991 238.767,193.684 239.260 C 194.377 239.754,194.817 239.950,194.660 239.697 C 194.504 239.444,193.809 238.833,193.116 238.340 C 192.423 237.846,191.983 237.650,192.140 237.903 M267.600 238.000 C 267.930 238.213,268.650 238.373,269.200 238.354 L 270.200 238.320 269.200 238.000 C 267.658 237.506,266.836 237.506,267.600 238.000 M271.400 238.800 C 271.840 238.989,272.560 239.144,273.000 239.144 L 273.800 239.144 273.000 238.800 C 272.560 238.611,271.840 238.456,271.400 238.456 L 270.600 238.456 271.400 238.800 M275.400 239.580 C 276.161 239.926,279.117 240.164,278.767 239.851 C 278.675 239.769,277.700 239.593,276.600 239.459 C 275.254 239.295,274.861 239.335,275.400 239.580 M143.114 243.100 C 148.315 248.787,160.400 260.493,160.400 259.844 C 160.400 259.702,159.185 258.471,157.700 257.109 C 154.226 253.922,146.078 245.774,142.891 242.300 C 141.529 240.815,140.301 239.600,140.164 239.600 C 140.026 239.600,141.354 241.175,143.114 243.100 M195.200 240.295 C 195.200 240.684,196.814 241.719,197.051 241.482 C 197.147 241.386,196.769 241.010,196.212 240.645 C 195.656 240.280,195.200 240.122,195.200 240.295 M280.600 240.400 C 281.040 240.589,282.120 240.736,283.000 240.726 L 284.600 240.708 283.000 240.377 C 282.120 240.195,281.040 240.048,280.600 240.051 L 279.800 240.056 280.600 240.400 M216.249 245.422 C 215.012 247.984,214.000 250.220,214.000 250.391 C 214.000 251.437,212.781 251.641,211.591 250.794 C 210.911 250.309,210.265 250.002,210.156 250.111 C 210.047 250.220,210.612 250.713,211.412 251.207 C 212.648 251.971,212.948 252.023,213.414 251.553 C 214.094 250.866,218.892 241.158,218.663 240.930 C 218.572 240.839,217.485 242.860,216.249 245.422 M287.800 241.204 C 288.992 241.503,297.886 241.732,297.567 241.455 C 297.475 241.376,294.970 241.219,292.000 241.107 C 289.030 240.995,287.140 241.039,287.800 241.204 M302.400 242.000 C 302.730 242.213,303.360 242.378,303.800 242.366 L 304.600 242.344 303.800 242.000 C 302.604 241.486,301.605 241.486,302.400 242.000 M199.007 243.070 C 199.883 243.658,200.690 244.255,200.800 244.396 C 201.101 244.783,204.399 246.989,206.128 247.959 C 206.965 248.430,208.090 249.102,208.626 249.454 C 209.161 249.805,209.600 249.994,209.600 249.874 C 209.600 249.755,208.205 248.793,206.500 247.736 C 204.795 246.680,202.215 244.957,200.767 243.908 C 199.319 242.859,197.973 242.000,197.775 242.000 C 197.576 242.000,198.131 242.481,199.007 243.070 M307.600 244.143 C 307.600 244.556,309.612 246.522,309.820 246.313 C 309.914 246.219,309.454 245.626,308.796 244.996 C 308.138 244.366,307.600 243.982,307.600 244.143 M310.000 246.990 C 310.000 247.095,310.359 247.770,310.799 248.490 C 311.738 250.031,311.869 249.681,310.990 247.980 C 310.441 246.919,310.000 246.478,310.000 246.990 M311.656 250.600 C 311.656 251.040,311.811 251.760,312.000 252.200 L 312.344 253.000 312.344 252.200 C 312.344 251.760,312.189 251.040,312.000 250.600 L 311.656 249.800 311.656 250.600 M162.600 261.800 C 163.700 262.826,165.680 264.497,167.000 265.514 C 168.320 266.531,169.490 267.462,169.600 267.582 C 169.710 267.703,170.880 268.603,172.200 269.581 C 173.520 270.560,174.915 271.622,175.300 271.942 C 175.685 272.262,175.998 272.361,175.995 272.162 C 175.992 271.963,175.329 271.371,174.520 270.847 C 173.712 270.323,170.969 268.226,168.425 266.188 C 160.328 259.698,160.430 259.775,162.600 261.800 M177.200 273.168 C 178.171 273.975,185.194 278.721,186.400 279.386 C 187.948 280.240,185.836 278.660,181.811 275.952 C 176.924 272.665,175.713 271.934,177.200 273.168 M189.600 281.379 C 189.600 281.489,190.140 281.859,190.800 282.200 C 191.460 282.541,192.000 282.731,192.000 282.621 C 192.000 282.511,191.460 282.141,190.800 281.800 C 190.140 281.459,189.600 281.269,189.600 281.379 M193.200 283.567 C 194.163 284.352,194.800 284.608,194.800 284.210 C 194.800 284.106,194.215 283.735,193.500 283.386 L 192.200 282.752 193.200 283.567 M196.000 285.168 C 196.550 285.616,197.110 285.986,197.245 285.991 C 197.379 285.996,198.741 286.688,200.270 287.529 C 203.243 289.163,204.867 289.889,204.200 289.286 C 203.980 289.087,201.820 287.895,199.400 286.639 C 196.980 285.382,195.450 284.720,196.000 285.168 M205.492 290.176 C 206.500 290.920,209.200 292.114,209.200 291.815 C 209.200 291.708,208.345 291.212,207.300 290.714 C 204.730 289.489,204.447 289.404,205.492 290.176 M222.800 298.000 C 223.130 298.213,223.670 298.388,224.000 298.388 C 224.533 298.388,224.533 298.345,224.000 298.000 C 223.670 297.787,223.130 297.612,222.800 297.612 C 222.267 297.612,222.267 297.655,222.800 298.000 M229.600 300.322 C 230.211 300.711,235.938 302.656,239.200 303.582 C 240.190 303.863,241.450 304.231,242.000 304.400 C 245.266 305.403,248.592 306.176,247.400 305.654 C 246.641 305.322,245.940 305.107,242.200 304.060 C 241.320 303.814,238.260 302.865,235.400 301.951 C 228.562 299.766,228.859 299.850,229.600 300.322 M311.800 302.400 C 311.648 303.091,311.614 303.747,311.724 303.857 C 311.834 303.967,312.048 303.491,312.200 302.800 C 312.352 302.109,312.386 301.453,312.276 301.343 C 312.166 301.233,311.952 301.709,311.800 302.400 M248.433 306.147 C 248.525 306.228,249.320 306.414,250.200 306.562 C 251.346 306.754,251.630 306.714,251.200 306.421 C 250.660 306.053,248.032 305.793,248.433 306.147 M252.033 306.947 C 252.125 307.028,252.920 307.214,253.800 307.362 C 254.946 307.554,255.230 307.514,254.800 307.221 C 254.260 306.853,251.632 306.593,252.033 306.947 M256.400 308.000 C 256.950 308.176,257.760 308.326,258.200 308.332 L 259.000 308.344 258.200 308.000 C 257.760 307.811,256.950 307.662,256.400 307.668 L 255.400 307.680 256.400 308.000 M259.633 308.544 C 259.725 308.624,260.610 308.806,261.600 308.950 C 262.858 309.133,263.219 309.091,262.800 308.812 C 262.260 308.453,259.232 308.197,259.633 308.544 M265.000 309.600 C 266.876 310.077,267.939 310.077,267.200 309.600 C 266.870 309.387,265.970 309.231,265.200 309.253 L 263.800 309.295 265.000 309.600 M268.833 310.147 C 268.925 310.228,270.170 310.397,271.600 310.523 C 273.230 310.666,273.827 310.626,273.200 310.416 C 272.220 310.086,268.505 309.858,268.833 310.147 M277.000 311.223 C 277.880 311.405,279.230 311.543,280.000 311.530 L 281.400 311.505 280.200 311.200 C 279.540 311.032,278.190 310.894,277.200 310.893 L 275.400 310.892 277.000 311.223 M286.200 312.015 C 287.520 312.179,290.310 312.304,292.400 312.293 L 296.200 312.273 292.600 311.979 C 290.620 311.817,287.830 311.692,286.400 311.701 L 283.800 311.718 286.200 312.015 M301.800 312.000 L 301.000 312.344 301.800 312.344 C 302.240 312.344,302.960 312.189,303.400 312.000 L 304.200 311.656 303.400 311.656 C 302.960 311.656,302.240 311.811,301.800 312.000 " stroke="none" fill="#aad5f8" fill-rule="evenodd"></path><path id="path4" d="M96.446 87.563 C 96.107 87.778,96.651 87.832,97.846 87.704 C 98.921 87.588,99.875 87.428,99.967 87.347 C 100.329 87.028,96.965 87.235,96.446 87.563 M146.600 87.403 C 147.514 87.721,149.929 87.809,149.748 87.516 C 149.641 87.342,148.798 87.214,147.876 87.232 C 146.954 87.249,146.380 87.326,146.600 87.403 M87.449 96.615 C 87.312 96.973,87.224 97.926,87.253 98.733 C 87.301 100.044,87.338 99.987,87.595 98.200 C 87.903 96.071,87.855 95.558,87.449 96.615 M87.278 107.000 C 87.260 110.520,87.378 114.120,87.539 115.000 C 87.813 116.494,87.711 103.148,87.435 101.400 C 87.366 100.960,87.295 103.480,87.278 107.000 M158.890 103.800 C 158.884 105.120,159.016 107.190,159.183 108.400 L 159.487 110.600 159.514 107.800 C 159.529 106.260,159.397 104.190,159.220 103.200 L 158.900 101.400 158.890 103.800 M159.646 115.800 C 159.715 117.431,160.315 118.787,160.354 117.400 C 160.373 116.740,160.213 115.930,160.000 115.600 C 159.681 115.106,159.618 115.141,159.646 115.800 M88.028 121.433 C 88.044 122.515,88.212 123.760,88.402 124.200 C 88.616 124.695,88.660 124.010,88.518 122.400 C 88.239 119.243,87.990 118.751,88.028 121.433 M160.638 122.600 C 160.970 124.584,161.202 124.904,161.194 123.367 C 161.191 122.725,161.004 121.930,160.779 121.600 C 160.486 121.170,160.446 121.454,160.638 122.600 M161.228 126.276 C 161.318 127.315,161.944 128.196,161.972 127.324 C 161.987 126.842,161.820 126.336,161.600 126.200 C 161.380 126.064,161.213 126.098,161.228 126.276 M88.828 127.833 C 88.844 128.695,89.009 129.760,89.196 130.200 C 89.408 130.698,89.451 130.169,89.312 128.800 C 89.044 126.165,88.789 125.657,88.828 127.833 M162.046 130.000 C 162.065 130.330,162.224 131.050,162.400 131.600 L 162.720 132.600 162.754 131.600 C 162.773 131.050,162.613 130.330,162.400 130.000 C 162.055 129.467,162.016 129.467,162.046 130.000 M89.600 134.110 C 89.600 134.683,89.787 135.268,90.016 135.410 C 90.289 135.579,90.338 135.277,90.160 134.534 C 89.792 133.001,89.600 132.856,89.600 134.110 M162.828 133.476 C 162.918 134.515,163.544 135.396,163.572 134.524 C 163.587 134.042,163.420 133.536,163.200 133.400 C 162.980 133.264,162.813 133.298,162.828 133.476 M90.400 138.510 C 90.400 139.083,90.587 139.668,90.816 139.810 C 91.089 139.979,91.138 139.677,90.960 138.934 C 90.592 137.401,90.400 137.256,90.400 138.510 M164.428 139.476 C 164.518 140.515,165.144 141.396,165.172 140.524 C 165.187 140.042,165.020 139.536,164.800 139.400 C 164.580 139.264,164.413 139.298,164.428 139.476 M91.228 142.676 C 91.213 143.158,91.380 143.664,91.600 143.800 C 92.073 144.092,92.073 143.701,91.600 142.600 C 91.269 141.829,91.255 141.831,91.228 142.676 M92.028 146.276 C 92.013 146.758,92.180 147.264,92.400 147.400 C 92.873 147.692,92.873 147.301,92.400 146.200 C 92.069 145.429,92.055 145.431,92.028 146.276 M167.058 147.198 C 167.200 147.747,167.650 148.917,168.059 149.798 C 168.467 150.679,168.685 150.951,168.542 150.402 C 168.400 149.853,167.950 148.683,167.541 147.802 C 167.133 146.921,166.915 146.649,167.058 147.198 M169.600 153.684 C 169.600 154.116,170.815 156.800,171.011 156.800 C 171.121 156.800,170.933 156.134,170.593 155.321 C 169.993 153.886,169.600 153.238,169.600 153.684 M173.646 163.600 C 173.665 163.930,173.824 164.650,174.000 165.200 L 174.320 166.200 174.354 165.200 C 174.373 164.650,174.213 163.930,174.000 163.600 C 173.655 163.067,173.616 163.067,173.646 163.600 M174.064 167.267 C 174.029 167.854,173.884 168.664,173.741 169.067 C 173.543 169.629,173.596 169.695,173.970 169.351 C 174.244 169.099,174.386 168.309,174.293 167.551 C 174.159 166.453,174.116 166.400,174.064 167.267 M153.700 184.433 C 152.325 185.100,151.200 185.736,151.200 185.846 C 151.200 185.957,151.335 185.977,151.500 185.892 C 151.665 185.807,152.835 185.243,154.100 184.639 C 155.365 184.035,156.400 183.464,156.400 183.371 C 156.400 183.122,156.419 183.114,153.700 184.433 M150.794 190.700 C 151.495 191.855,152.158 192.800,152.267 192.800 C 152.537 192.800,150.818 189.946,150.098 189.200 C 149.780 188.870,150.093 189.545,150.794 190.700 M157.806 201.312 C 158.192 201.924,158.609 202.324,158.732 202.201 C 158.855 202.078,158.539 201.578,158.030 201.089 L 157.104 200.200 157.806 201.312 M112.760 201.400 C 113.434 202.705,113.988 203.428,113.985 203.000 C 113.983 202.780,113.614 202.150,113.164 201.600 C 112.621 200.936,112.485 200.869,112.760 201.400 M114.586 204.700 C 114.935 205.415,115.306 206.000,115.410 206.000 C 115.808 206.000,115.552 205.363,114.767 204.400 L 113.952 203.400 114.586 204.700 M162.621 207.800 C 163.433 208.790,164.170 209.600,164.261 209.600 C 164.574 209.600,161.799 206.031,161.473 206.016 C 161.293 206.007,161.810 206.810,162.621 207.800 M116.426 207.900 C 118.387 211.199,119.694 213.200,119.888 213.200 C 120.000 213.200,119.783 212.728,119.405 212.152 C 119.027 211.575,118.098 210.045,117.340 208.752 C 116.582 207.458,115.866 206.400,115.748 206.400 C 115.631 206.400,115.936 207.075,116.426 207.900 M164.813 210.286 C 164.820 210.459,165.675 211.508,166.713 212.619 C 168.639 214.679,168.371 214.201,166.078 211.486 C 165.375 210.653,164.806 210.113,164.813 210.286 M170.800 217.391 C 172.010 218.706,173.045 219.861,173.100 219.957 C 173.155 220.054,173.285 220.048,173.390 219.944 C 173.494 219.840,172.459 218.685,171.090 217.377 L 168.600 215.000 170.800 217.391 M176.400 223.400 C 177.595 224.610,178.663 225.600,178.773 225.600 C 178.883 225.600,177.995 224.610,176.800 223.400 C 175.605 222.190,174.537 221.200,174.427 221.200 C 174.317 221.200,175.205 222.190,176.400 223.400 M127.222 224.200 C 127.227 224.729,128.342 226.191,128.569 225.965 C 128.666 225.868,128.402 225.341,127.982 224.794 C 127.561 224.247,127.220 223.980,127.222 224.200 M231.062 225.900 C 230.960 226.065,232.012 226.200,233.400 226.200 C 234.788 226.200,235.840 226.065,235.738 225.900 C 235.636 225.735,234.584 225.600,233.400 225.600 C 232.216 225.600,231.164 225.735,231.062 225.900 M182.600 229.200 C 183.683 230.300,184.660 231.200,184.770 231.200 C 184.880 231.200,184.083 230.300,183.000 229.200 C 181.917 228.100,180.940 227.200,180.830 227.200 C 180.720 227.200,181.517 228.100,182.600 229.200 M132.987 231.983 C 133.995 233.293,135.018 234.487,135.259 234.637 C 135.501 234.786,134.760 233.714,133.613 232.254 C 132.466 230.794,131.443 229.600,131.340 229.600 C 131.237 229.600,131.978 230.672,132.987 231.983 M252.818 232.935 C 253.134 233.275,260.490 235.644,260.669 235.464 C 260.753 235.381,259.421 234.857,257.710 234.300 C 253.408 232.899,252.566 232.664,252.818 232.935 M188.488 234.213 C 189.086 234.843,189.647 235.277,189.735 235.179 C 189.823 235.080,189.333 234.565,188.647 234.034 L 187.400 233.069 188.488 234.213 M136.434 236.247 C 136.965 236.933,137.480 237.423,137.579 237.335 C 137.677 237.247,137.243 236.686,136.613 236.088 L 135.469 235.000 136.434 236.247 M261.233 235.743 C 261.325 235.821,262.030 236.001,262.800 236.142 C 263.785 236.323,264.022 236.282,263.600 236.006 C 263.058 235.650,260.837 235.403,261.233 235.743 M264.433 236.544 C 264.525 236.623,265.140 236.808,265.800 236.956 C 266.676 237.152,266.838 237.115,266.400 236.818 C 265.860 236.453,264.032 236.198,264.433 236.544 M267.233 237.347 C 267.325 237.428,268.120 237.604,269.000 237.738 C 270.115 237.907,270.358 237.871,269.800 237.619 C 269.032 237.271,266.890 237.044,267.233 237.347 M271.633 238.144 C 272.105 238.550,274.043 238.793,273.810 238.416 C 273.668 238.187,273.083 238.000,272.510 238.000 C 271.936 238.000,271.542 238.065,271.633 238.144 M217.761 241.100 C 217.157 242.365,216.593 243.535,216.508 243.700 C 216.423 243.865,216.440 244.000,216.547 244.000 C 216.654 244.000,217.235 242.965,217.839 241.700 C 218.443 240.435,219.007 239.265,219.092 239.100 C 219.177 238.935,219.160 238.800,219.053 238.800 C 218.946 238.800,218.365 239.835,217.761 241.100 M275.233 238.944 C 275.325 239.024,276.210 239.206,277.200 239.350 C 278.458 239.533,278.819 239.491,278.400 239.212 C 277.860 238.853,274.832 238.597,275.233 238.944 M282.200 240.000 C 282.860 240.168,283.760 240.314,284.200 240.325 L 285.000 240.344 284.200 240.000 C 283.760 239.811,282.860 239.665,282.200 239.675 L 281.000 239.695 282.200 240.000 M290.800 240.817 C 292.010 240.984,294.260 241.112,295.800 241.102 L 298.600 241.082 296.200 240.785 C 294.880 240.621,292.630 240.493,291.200 240.500 L 288.600 240.513 290.800 240.817 M141.230 241.882 C 143.064 243.927,143.238 244.095,143.387 243.946 C 143.575 243.759,140.883 240.800,140.525 240.800 C 140.380 240.800,140.697 241.287,141.230 241.882 M149.400 250.400 C 151.371 252.380,153.073 254.000,153.183 254.000 C 153.293 254.000,151.771 252.380,149.800 250.400 C 147.829 248.420,146.127 246.800,146.017 246.800 C 145.907 246.800,147.429 248.420,149.400 250.400 M207.200 247.733 C 207.200 247.842,208.145 248.505,209.300 249.206 C 210.455 249.907,211.130 250.220,210.800 249.902 C 210.054 249.182,207.200 247.463,207.200 247.733 M312.352 251.287 C 312.537 252.398,312.593 252.455,312.719 251.654 C 312.801 251.133,312.703 250.543,312.501 250.341 C 312.279 250.119,312.221 250.493,312.352 251.287 M156.000 256.561 C 156.000 256.978,158.942 259.592,159.163 259.371 C 159.257 259.277,159.256 259.155,159.162 259.100 C 159.068 259.045,158.318 258.380,157.496 257.622 C 156.673 256.863,156.000 256.386,156.000 256.561 M162.433 262.500 C 162.525 262.555,163.140 263.050,163.800 263.600 L 165.000 264.600 164.030 263.500 C 163.497 262.895,162.882 262.400,162.664 262.400 C 162.445 262.400,162.342 262.445,162.433 262.500 M167.215 266.266 C 167.230 266.595,170.400 268.947,170.400 268.630 C 170.400 268.540,169.680 267.897,168.800 267.200 C 167.920 266.503,167.207 266.083,167.215 266.266 M170.800 268.986 C 170.800 269.165,171.115 269.560,171.500 269.863 C 172.336 270.521,173.973 271.451,173.400 270.943 C 171.318 269.096,170.800 268.706,170.800 268.986 M188.000 280.914 C 188.000 281.155,191.106 283.200,191.471 283.200 C 191.630 283.200,191.589 283.049,191.380 282.864 C 190.752 282.308,188.000 280.721,188.000 280.914 M193.633 284.549 C 194.045 284.917,196.400 286.000,196.400 285.821 C 196.400 285.590,194.182 284.400,193.753 284.400 C 193.596 284.400,193.542 284.467,193.633 284.549 M197.200 286.420 C 198.587 287.361,199.378 287.635,198.400 286.836 C 197.850 286.386,197.220 286.017,197.000 286.015 C 196.780 286.013,196.870 286.196,197.200 286.420 M228.953 300.686 C 229.283 301.017,232.065 301.994,232.600 301.969 C 233.065 301.946,231.519 301.275,229.846 300.772 C 229.211 300.581,228.809 300.542,228.953 300.686 M312.352 302.713 C 312.221 303.507,312.279 303.881,312.501 303.659 C 312.703 303.457,312.801 302.867,312.719 302.346 C 312.593 301.545,312.537 301.602,312.352 302.713 M236.433 303.344 C 236.525 303.423,237.140 303.608,237.800 303.756 C 238.676 303.952,238.838 303.915,238.400 303.618 C 237.860 303.253,236.032 302.998,236.433 303.344 M308.778 309.100 L 307.400 310.600 308.900 309.222 C 309.725 308.463,310.400 307.788,310.400 307.722 C 310.400 307.416,310.062 307.704,308.778 309.100 M256.000 308.382 C 256.330 308.605,256.945 308.791,257.367 308.794 C 258.390 308.802,258.071 308.573,256.600 308.244 C 255.724 308.048,255.562 308.085,256.000 308.382 M260.190 309.184 C 260.332 309.413,260.917 309.600,261.490 309.600 C 262.744 309.600,262.599 309.408,261.066 309.040 C 260.323 308.862,260.021 308.911,260.190 309.184 M264.600 310.000 C 264.736 310.220,265.242 310.387,265.724 310.372 C 266.569 310.345,266.571 310.331,265.800 310.000 C 264.699 309.527,264.308 309.527,264.600 310.000 M269.600 310.788 C 269.930 311.008,270.815 311.191,271.567 311.194 C 273.360 311.202,273.041 310.975,270.800 310.650 C 269.542 310.467,269.181 310.509,269.600 310.788 M275.800 311.580 C 276.561 311.926,279.517 312.164,279.167 311.851 C 279.075 311.769,278.100 311.593,277.000 311.459 C 275.654 311.295,275.261 311.335,275.800 311.580 M284.600 312.427 C 285.783 312.701,294.577 312.866,293.800 312.599 C 293.580 312.524,291.150 312.392,288.400 312.305 C 285.650 312.219,283.940 312.274,284.600 312.427 M302.600 312.400 L 301.400 312.705 302.476 312.753 C 303.068 312.779,303.664 312.620,303.800 312.400 C 303.936 312.180,303.992 312.021,303.924 312.047 C 303.856 312.073,303.260 312.232,302.600 312.400 " stroke="none" fill="#4eacf4" fill-rule="evenodd"></path></g></svg>