<svg id="Layer_1" data-name="Layer 1" xmlns="http://www.w3.org/2000/svg" viewBox="0 0 512 512"><title>world-globe</title><path d="M.07,256C.07,114.65,114.65.05,256,.05S511.94,114.66,511.93,256,397.34,511.95,256,511.95.05,397.35.07,256Z" fill="#0086cd"/><path d="M256,145.66A110.34,110.34,0,1,0,366.35,256,110.34,110.34,0,0,0,256,145.66Zm0,201A90.64,90.64,0,1,1,346.64,256,90.74,90.74,0,0,1,256,346.64Z" fill="#fff"/><path d="M209.19,229.42h-22.7A73.7,73.7,0,0,0,182,247.9h25.31A165.21,165.21,0,0,1,209.19,229.42Z" fill="#fff"/><path d="M195.14,213.21H212.7A111.21,111.21,0,0,1,219.91,194c.75-1.51,1.53-3,2.33-4.35A75,75,0,0,0,195.14,213.21Z" fill="#fff"/><path d="M302.82,282.58h22.7A73.71,73.71,0,0,0,330,264.1H304.69A166,166,0,0,1,302.82,282.58Z" fill="#fff"/><path d="M304.69,247.9H330a74,74,0,0,0-4.48-18.48h-22.7A166.08,166.08,0,0,1,304.69,247.9Z" fill="#fff"/><path d="M292.09,318c-.75,1.51-1.53,3-2.33,4.35a74.9,74.9,0,0,0,27.1-23.52H299.3A111.09,111.09,0,0,1,292.09,318Z" fill="#fff"/><path d="M299.3,213.21h17.56a75,75,0,0,0-27.1-23.52c.8,1.4,1.58,2.84,2.33,4.35A110.77,110.77,0,0,1,299.3,213.21Z" fill="#fff"/><path d="M212.71,298.79H195.14a74.94,74.94,0,0,0,27.09,23.52c-.8-1.4-1.58-2.84-2.33-4.35A110.54,110.54,0,0,1,212.71,298.79Z" fill="#fff"/><path d="M207.32,264.1H182a73.84,73.84,0,0,0,4.48,18.48h22.7A165.13,165.13,0,0,1,207.32,264.1Z" fill="#fff"/><path d="M264.1,184.25v29h18.32C277.8,199,271.1,188.81,264.1,184.25Z" fill="#fff"/><path d="M229.58,213.21H247.9v-29C240.9,188.81,234.21,199,229.58,213.21Z" fill="#fff"/><path d="M225.58,282.58H247.9V264.1H223.53A148.89,148.89,0,0,0,225.58,282.58Z" fill="#fff"/><path d="M223.53,247.9H247.9V229.42H225.58A148.9,148.9,0,0,0,223.53,247.9Z" fill="#fff"/><path d="M264.1,229.42V247.9h24.37a148.87,148.87,0,0,0-2.06-18.48Z" fill="#fff"/><path d="M264.1,282.58h22.32a148.79,148.79,0,0,0,2.06-18.48H264.1Z" fill="#fff"/><path d="M247.9,327.75v-29H229.58C234.21,313,240.9,323.19,247.9,327.75Z" fill="#fff"/><path d="M264.1,327.75c7-4.56,13.7-14.73,18.32-29H264.1Z" fill="#fff"/></svg>